<svg xmlns="http://www.w3.org/2000/svg" width="1600" height="900" viewBox="0 0 1600 900">
<rect width="100%" height="100%" fill="rgba(0,0,0,0)" />
<rect width="100%" height="100%" fill="rgba(255,255,255,0.21)" />
<rect x="513" y="47" width="31" height="763" rx="8" fill="#312016" />
<polygon points="520.5,-4.0 451.2179676972449,-56.499999999999986 589.782032302755,-56.500000000000014" fill="#336b4d" opacity="0.75" />
<polygon points="543.5,60.0 463.3926501499394,-5.999999999999989 623.6073498500606,-6.000000000000021" fill="#336b4d" opacity="0.67" />
<polygon points="521.5,124.0 430.56733260263394,44.500000000000014 612.432667397366,44.49999999999997" fill="#336b4d" opacity="0.59" />
<polygon points="519.5,188.0 417.74201505532847,95.00000000000001 621.2579849446715,94.99999999999997" fill="#336b4d" opacity="0.51" />
<rect x="1321" y="240" width="21" height="570" rx="8" fill="#312016" />
<polygon points="1344.5,210.0 1275.2179676972448,157.5 1413.7820323027552,157.5" fill="#336b4d" opacity="0.75" />
<polygon points="1330.5,274.0 1250.3926501499395,208.0 1410.6073498500605,207.99999999999997" fill="#336b4d" opacity="0.67" />
<polygon points="1340.5,338.0 1249.567332602634,258.5 1431.432667397366,258.5" fill="#336b4d" opacity="0.59" />
<polygon points="1342.5,402.0 1240.7420150553285,309.0 1444.2579849446715,309.0" fill="#336b4d" opacity="0.51" />
<rect x="259" y="126" width="34" height="684" rx="8" fill="#312016" />
<polygon points="291.0,109.0 221.7179676972449,56.500000000000014 360.28203230275506,56.499999999999986" fill="#336b4d" opacity="0.75" />
<polygon points="258.0,173.0 177.8926501499394,107.00000000000001 338.10734985006053,106.99999999999997" fill="#336b4d" opacity="0.67" />
<polygon points="282.0,237.0 191.06733260263394,157.5 372.932667397366,157.49999999999997" fill="#336b4d" opacity="0.59" />
<rect x="233" y="197" width="31" height="613" rx="8" fill="#312016" />
<polygon points="266.5,170.0 197.2179676972449,117.50000000000001 335.78203230275506,117.49999999999999" fill="#336b4d" opacity="0.75" />
<polygon points="260.5,234.0 180.3926501499394,168.0 340.60734985006053,167.99999999999997" fill="#336b4d" opacity="0.67" />
<polygon points="231.5,298.0 140.56733260263394,218.5 322.432667397366,218.49999999999997" fill="#336b4d" opacity="0.59" />
<rect x="1443" y="82" width="19" height="728" rx="8" fill="#312016" />
<polygon points="1452.5,64.0 1383.2179676972448,11.50000000000001 1521.7820323027552,11.499999999999986" fill="#336b4d" opacity="0.75" />
<polygon points="1438.5,128.0 1358.3926501499395,62.000000000000014 1518.6073498500605,61.99999999999998" fill="#336b4d" opacity="0.67" />
<polygon points="1437.5,192.0 1346.567332602634,112.50000000000001 1528.432667397366,112.49999999999997" fill="#336b4d" opacity="0.59" />
<rect x="1170" y="287" width="19" height="523" rx="8" fill="#312016" />
<polygon points="1161.5,241.0 1092.2179676972448,188.5 1230.7820323027552,188.5" fill="#336b4d" opacity="0.75" />
<polygon points="1182.5,305.0 1102.3926501499395,239.0 1262.6073498500605,238.99999999999997" fill="#336b4d" opacity="0.67" />
<polygon points="1184.5,369.0 1093.567332602634,289.5 1275.432667397366,289.5" fill="#336b4d" opacity="0.59" />
<rect x="772" y="249" width="34" height="561" rx="8" fill="#312016" />
<polygon points="802.0,200.0 732.7179676972448,147.5 871.282032302755,147.5" fill="#336b4d" opacity="0.75" />
<polygon points="787.0,264.0 706.8926501499394,198.0 867.1073498500606,197.99999999999997" fill="#336b4d" opacity="0.67" />
<polygon points="804.0,328.0 713.0673326026339,248.5 894.932667397366,248.49999999999997" fill="#336b4d" opacity="0.59" />
<polygon points="797.0,392.0 695.2420150553285,299.0 898.7579849446715,299.0" fill="#336b4d" opacity="0.51" />
<rect x="359" y="105" width="27" height="705" rx="8" fill="#312016" />
<polygon points="375.5,79.0 306.2179676972449,26.50000000000001 444.78203230275506,26.499999999999986" fill="#336b4d" opacity="0.75" />
<polygon points="362.5,143.0 282.3926501499394,77.00000000000001 442.60734985006053,76.99999999999997" fill="#336b4d" opacity="0.67" />
<polygon points="385.5,207.0 294.56733260263394,127.50000000000001 476.432667397366,127.49999999999997" fill="#336b4d" opacity="0.59" />
<polygon points="388.5,271.0 286.74201505532847,178.00000000000003 490.25798494467153,177.99999999999997" fill="#336b4d" opacity="0.51" />
<rect x="275" y="53" width="28" height="757" rx="8" fill="#312016" />
<polygon points="291.0,25.0 221.7179676972449,-27.49999999999999 360.28203230275506,-27.500000000000014" fill="#336b4d" opacity="0.75" />
<polygon points="294.0,89.0 213.8926501499394,23.00000000000001 374.10734985006053,22.99999999999998" fill="#336b4d" opacity="0.67" />
<polygon points="299.0,153.0 208.06733260263394,73.50000000000001 389.932667397366,73.49999999999997" fill="#336b4d" opacity="0.59" />
<rect x="453" y="107" width="32" height="703" rx="8" fill="#312016" />
<polygon points="452.0,95.0 382.7179676972449,42.500000000000014 521.282032302755,42.499999999999986" fill="#336b4d" opacity="0.75" />
<polygon points="482.0,159.0 401.8926501499394,93.00000000000001 562.1073498500606,92.99999999999997" fill="#336b4d" opacity="0.67" />
<polygon points="451.0,223.0 360.06733260263394,143.5 541.932667397366,143.49999999999997" fill="#336b4d" opacity="0.59" />
<rect x="89" y="95" width="32" height="715" rx="8" fill="#312016" />
<polygon points="98.0,61.0 28.717967697244887,8.50000000000001 167.28203230275506,8.499999999999986" fill="#336b4d" opacity="0.75" />
<polygon points="117.0,125.0 36.89265014993941,59.000000000000014 197.10734985006053,58.99999999999998" fill="#336b4d" opacity="0.67" />
<polygon points="92.0,189.0 1.0673326026339254,109.50000000000001 182.93266739736603,109.49999999999997" fill="#336b4d" opacity="0.59" />
<polygon points="92.00000000000001,253.0 -9.757984944671563,160.00000000000003 193.7579849446715,159.99999999999997" fill="#336b4d" opacity="0.51" />
<rect x="1026" y="55" width="19" height="755" rx="8" fill="#312016" />
<polygon points="1038.5,0.0 969.2179676972448,-52.499999999999986 1107.7820323027552,-52.500000000000014" fill="#336b4d" opacity="0.75" />
<polygon points="1021.5,64.0 941.3926501499394,-1.9999999999999893 1101.6073498500605,-2.0000000000000213" fill="#336b4d" opacity="0.67" />
<polygon points="1036.5,128.0 945.5673326026339,48.500000000000014 1127.432667397366,48.49999999999997" fill="#336b4d" opacity="0.59" />
<polygon points="1024.5,192.0 922.7420150553285,99.00000000000001 1126.2579849446715,98.99999999999997" fill="#336b4d" opacity="0.51" />
<rect x="708" y="126" width="27" height="684" rx="8" fill="#312016" />
<polygon points="703.5,121.0 634.2179676972448,68.50000000000001 772.782032302755,68.49999999999999" fill="#336b4d" opacity="0.75" />
<polygon points="738.5,185.0 658.3926501499394,119.00000000000001 818.6073498500606,118.99999999999997" fill="#336b4d" opacity="0.67" />
<polygon points="706.5,249.0 615.5673326026339,169.5 797.432667397366,169.49999999999997" fill="#336b4d" opacity="0.59" />
<rect x="864" y="207" width="34" height="603" rx="8" fill="#312016" />
<polygon points="873.0,171.0 803.7179676972448,118.50000000000001 942.282032302755,118.49999999999999" fill="#336b4d" opacity="0.75" />
<polygon points="871.0,235.0 790.8926501499394,169.0 951.1073498500606,168.99999999999997" fill="#336b4d" opacity="0.67" />
<polygon points="893.0,299.0 802.0673326026339,219.5 983.932667397366,219.49999999999997" fill="#336b4d" opacity="0.59" />
<polygon points="875.0,363.0 773.2420150553285,270.0 976.7579849446715,270.0" fill="#336b4d" opacity="0.51" />
<rect x="195" y="248" width="21" height="562" rx="8" fill="#312016" />
<polygon points="196.5,195.0 127.21796769724489,142.5 265.78203230275506,142.5" fill="#336b4d" opacity="0.75" />
<polygon points="196.5,259.0 116.39265014993941,193.0 276.60734985006053,192.99999999999997" fill="#336b4d" opacity="0.67" />
<polygon points="206.5,323.0 115.56733260263393,243.5 297.432667397366,243.49999999999997" fill="#336b4d" opacity="0.59" />
<rect x="1078" y="253" width="26" height="557" rx="8" fill="#312016" />
<polygon points="1102.0,202.0 1032.7179676972448,149.5 1171.2820323027552,149.5" fill="#336b4d" opacity="0.75" />
<polygon points="1108.0,266.0 1027.8926501499395,200.0 1188.1073498500605,199.99999999999997" fill="#336b4d" opacity="0.67" />
<polygon points="1091.0,330.0 1000.0673326026339,250.5 1181.932667397366,250.49999999999997" fill="#336b4d" opacity="0.59" />
<rect x="1563" y="128" width="20" height="682" rx="8" fill="#312016" />
<polygon points="1569.0,96.0 1499.7179676972448,43.500000000000014 1638.2820323027552,43.499999999999986" fill="#336b4d" opacity="0.75" />
<polygon points="1558.0,160.0 1477.8926501499395,94.00000000000001 1638.1073498500605,93.99999999999997" fill="#336b4d" opacity="0.67" />
<polygon points="1582.0,224.0 1491.067332602634,144.5 1672.932667397366,144.49999999999997" fill="#336b4d" opacity="0.59" />
<polygon points="1586.0,288.0 1484.2420150553285,195.00000000000003 1687.7579849446715,194.99999999999997" fill="#336b4d" opacity="0.51" />
<rect x="486" y="302" width="20" height="508" rx="8" fill="#312016" />
<polygon points="488.0,275.0 418.7179676972449,222.5 557.282032302755,222.5" fill="#336b4d" opacity="0.75" />
<polygon points="485.0,339.0 404.8926501499394,273.0 565.1073498500606,273.0" fill="#336b4d" opacity="0.67" />
<polygon points="485.0,403.0 394.06733260263394,323.5 575.932667397366,323.5" fill="#336b4d" opacity="0.59" />
<polygon points="512.0,467.0 410.24201505532847,374.0 613.7579849446715,374.0" fill="#336b4d" opacity="0.51" />
<rect x="1044" y="120" width="18" height="690" rx="8" fill="#312016" />
<polygon points="1070.0,87.0 1000.7179676972448,34.500000000000014 1139.2820323027552,34.499999999999986" fill="#336b4d" opacity="0.75" />
<polygon points="1051.0,151.0 970.8926501499394,85.00000000000001 1131.1073498500605,84.99999999999997" fill="#336b4d" opacity="0.67" />
<polygon points="1071.0,215.0 980.0673326026339,135.5 1161.932667397366,135.49999999999997" fill="#336b4d" opacity="0.59" />
<rect x="1026" y="222" width="32" height="588" rx="8" fill="#312016" />
<polygon points="1035.0,206.0 965.7179676972448,153.5 1104.2820323027552,153.5" fill="#336b4d" opacity="0.75" />
<polygon points="1059.0,270.0 978.8926501499394,204.0 1139.1073498500605,203.99999999999997" fill="#336b4d" opacity="0.67" />
<polygon points="1037.0,334.0 946.0673326026339,254.5 1127.932667397366,254.49999999999997" fill="#336b4d" opacity="0.59" />
<polygon points="1041.0,398.0 939.2420150553285,305.0 1142.7579849446715,305.0" fill="#336b4d" opacity="0.51" />
<rect x="445" y="195" width="28" height="615" rx="8" fill="#312016" />
<polygon points="474.0,176.0 404.7179676972449,123.50000000000001 543.282032302755,123.49999999999999" fill="#336b4d" opacity="0.75" />
<polygon points="452.0,240.0 371.8926501499394,174.0 532.1073498500606,173.99999999999997" fill="#336b4d" opacity="0.67" />
<polygon points="452.0,304.0 361.06733260263394,224.5 542.932667397366,224.49999999999997" fill="#336b4d" opacity="0.59" />
<rect x="981" y="109" width="28" height="701" rx="8" fill="#312016" />
<polygon points="987.0,57.0 917.7179676972448,4.500000000000011 1056.2820323027552,4.499999999999986" fill="#336b4d" opacity="0.75" />
<polygon points="1005.0,121.0 924.8926501499394,55.000000000000014 1085.1073498500605,54.99999999999998" fill="#336b4d" opacity="0.67" />
<polygon points="994.0,185.0 903.0673326026339,105.50000000000001 1084.932667397366,105.49999999999997" fill="#336b4d" opacity="0.59" />
<rect x="551" y="73" width="24" height="737" rx="8" fill="#312016" />
<polygon points="577.0,35.0 507.7179676972449,-17.49999999999999 646.282032302755,-17.500000000000014" fill="#336b4d" opacity="0.75" />
<polygon points="575.0,99.0 494.8926501499394,33.000000000000014 655.1073498500606,32.99999999999998" fill="#336b4d" opacity="0.67" />
<polygon points="569.0,163.0 478.06733260263394,83.50000000000001 659.932667397366,83.49999999999997" fill="#336b4d" opacity="0.59" />
<polygon points="551.0,227.0 449.24201505532847,134.00000000000003 652.7579849446715,133.99999999999997" fill="#336b4d" opacity="0.51" />
<rect x="5" y="133" width="18" height="677" rx="8" fill="#312016" />
<polygon points="27.000000000000004,94.0 -42.28203230275511,41.500000000000014 96.28203230275507,41.499999999999986" fill="#336b4d" opacity="0.75" />
<polygon points="17.000000000000007,158.0 -63.10734985006059,92.00000000000001 97.10734985006054,91.99999999999997" fill="#336b4d" opacity="0.67" />
<polygon points="8.000000000000007,222.0 -82.93266739736607,142.5 98.93266739736603,142.49999999999997" fill="#336b4d" opacity="0.59" />
<rect x="1391" y="88" width="27" height="722" rx="8" fill="#312016" />
<polygon points="1409.5,37.0 1340.2179676972448,-15.49999999999999 1478.7820323027552,-15.500000000000014" fill="#336b4d" opacity="0.75" />
<polygon points="1399.5,101.0 1319.3926501499395,35.000000000000014 1479.6073498500605,34.99999999999998" fill="#336b4d" opacity="0.67" />
<polygon points="1386.5,165.0 1295.567332602634,85.50000000000001 1477.432667397366,85.49999999999997" fill="#336b4d" opacity="0.59" />
<rect x="934" y="304" width="29" height="506" rx="8" fill="#312016" />
<polygon points="938.5,265.0 869.2179676972448,212.5 1007.782032302755,212.5" fill="#336b4d" opacity="0.75" />
<polygon points="939.5,329.0 859.3926501499394,263.0 1019.6073498500606,263.0" fill="#336b4d" opacity="0.67" />
<polygon points="941.5,393.0 850.5673326026339,313.5 1032.432667397366,313.5" fill="#336b4d" opacity="0.59" />
<polygon points="958.5,457.0 856.7420150553285,364.0 1060.2579849446715,364.0" fill="#336b4d" opacity="0.51" />
<rect x="396" y="120" width="25" height="690" rx="8" fill="#312016" />
<polygon points="395.5,80.0 326.2179676972449,27.50000000000001 464.78203230275506,27.499999999999986" fill="#336b4d" opacity="0.75" />
<polygon points="420.5,144.0 340.3926501499394,78.00000000000001 500.60734985006053,77.99999999999997" fill="#336b4d" opacity="0.67" />
<polygon points="399.5,208.0 308.56733260263394,128.5 490.432667397366,128.49999999999997" fill="#336b4d" opacity="0.59" />
<polygon points="410.5,272.0 308.74201505532847,179.00000000000003 512.2579849446715,178.99999999999997" fill="#336b4d" opacity="0.51" />
<rect x="566" y="175" width="19" height="635" rx="8" fill="#312016" />
<polygon points="558.5,140.0 489.2179676972449,87.50000000000001 627.782032302755,87.49999999999999" fill="#336b4d" opacity="0.75" />
<polygon points="570.5,204.0 490.3926501499394,138.0 650.6073498500606,137.99999999999997" fill="#336b4d" opacity="0.67" />
<polygon points="560.5,268.0 469.56733260263394,188.5 651.432667397366,188.49999999999997" fill="#336b4d" opacity="0.59" />
<rect x="522" y="274" width="32" height="536" rx="8" fill="#312016" />
<polygon points="552.0,239.0 482.7179676972449,186.5 621.282032302755,186.5" fill="#336b4d" opacity="0.75" />
<polygon points="556.0,303.0 475.8926501499394,237.0 636.1073498500606,236.99999999999997" fill="#336b4d" opacity="0.67" />
<polygon points="546.0,367.0 455.06733260263394,287.5 636.932667397366,287.5" fill="#336b4d" opacity="0.59" />
<rect x="980" y="239" width="18" height="571" rx="8" fill="#312016" />
<polygon points="1002.0,208.0 932.7179676972448,155.5 1071.2820323027552,155.5" fill="#336b4d" opacity="0.75" />
<polygon points="994.0,272.0 913.8926501499394,206.0 1074.1073498500605,205.99999999999997" fill="#336b4d" opacity="0.67" />
<polygon points="993.0,336.0 902.0673326026339,256.5 1083.932667397366,256.5" fill="#336b4d" opacity="0.59" />
<rect x="1501" y="155" width="29" height="655" rx="8" fill="#312016" />
<polygon points="1531.5,110.0 1462.2179676972448,57.500000000000014 1600.7820323027552,57.499999999999986" fill="#336b4d" opacity="0.75" />
<polygon points="1528.5,174.0 1448.3926501499395,108.00000000000001 1608.6073498500605,107.99999999999997" fill="#336b4d" opacity="0.67" />
<polygon points="1499.5,238.0 1408.567332602634,158.5 1590.432667397366,158.49999999999997" fill="#336b4d" opacity="0.59" />
<polygon points="1520.5,302.0 1418.7420150553285,209.00000000000003 1622.2579849446715,208.99999999999997" fill="#336b4d" opacity="0.51" />
<rect x="940" y="160" width="20" height="650" rx="8" fill="#312016" />
<polygon points="933.0,105.0 863.7179676972448,52.500000000000014 1002.282032302755,52.499999999999986" fill="#336b4d" opacity="0.75" />
<polygon points="962.0,169.0 881.8926501499394,103.00000000000001 1042.1073498500605,102.99999999999997" fill="#336b4d" opacity="0.67" />
<polygon points="964.0,233.0 873.0673326026339,153.5 1054.932667397366,153.49999999999997" fill="#336b4d" opacity="0.59" />
<polygon points="936.0,297.0 834.2420150553285,204.00000000000003 1037.7579849446715,203.99999999999997" fill="#336b4d" opacity="0.51" />
</svg>