<svg xmlns="http://www.w3.org/2000/svg" width="1600" height="900" viewBox="0 0 1600 900">
<rect width="100%" height="100%" fill="rgba(0,0,0,0)" />
<rect width="100%" height="100%" fill="rgba(255,255,255,0.12)" />
<rect x="1069" y="247" width="21" height="563" rx="8" fill="#352418" />
<polygon points="1074.5,196.0 1005.2179676972448,143.5 1143.7820323027552,143.5" fill="#245537" opacity="0.75" />
<polygon points="1065.5,260.0 985.3926501499394,194.0 1145.6073498500605,193.99999999999997" fill="#245537" opacity="0.67" />
<polygon points="1066.5,324.0 975.5673326026339,244.5 1157.432667397366,244.49999999999997" fill="#245537" opacity="0.59" />
<rect x="701" y="286" width="32" height="524" rx="8" fill="#352418" />
<polygon points="726.0,252.0 656.7179676972448,199.5 795.282032302755,199.5" fill="#245537" opacity="0.75" />
<polygon points="719.0,316.0 638.8926501499394,250.0 799.1073498500606,249.99999999999997" fill="#245537" opacity="0.67" />
<polygon points="720.0,380.0 629.0673326026339,300.5 810.932667397366,300.5" fill="#245537" opacity="0.59" />
<polygon points="708.0,444.0 606.2420150553285,351.0 809.7579849446715,351.0" fill="#245537" opacity="0.51" />
<rect x="215" y="235" width="18" height="575" rx="8" fill="#352418" />
<polygon points="210.0,215.0 140.7179676972449,162.5 279.28203230275506,162.5" fill="#245537" opacity="0.75" />
<polygon points="216.0,279.0 135.8926501499394,213.0 296.10734985006053,212.99999999999997" fill="#245537" opacity="0.67" />
<polygon points="237.0,343.0 146.06733260263394,263.5 327.932667397366,263.5" fill="#245537" opacity="0.59" />
<polygon points="236.0,407.0 134.24201505532844,314.0 337.75798494467153,314.0" fill="#245537" opacity="0.51" />
<rect x="519" y="298" width="22" height="512" rx="8" fill="#352418" />
<polygon points="517.0,263.0 447.7179676972449,210.5 586.282032302755,210.5" fill="#245537" opacity="0.75" />
<polygon points="517.0,327.0 436.8926501499394,261.0 597.1073498500606,261.0" fill="#245537" opacity="0.67" />
<polygon points="535.0,391.0 444.06733260263394,311.5 625.932667397366,311.5" fill="#245537" opacity="0.59" />
<polygon points="523.0,455.0 421.24201505532847,362.0 624.7579849446715,362.0" fill="#245537" opacity="0.51" />
<rect x="1222" y="148" width="27" height="662" rx="8" fill="#352418" />
<polygon points="1219.5,122.0 1150.2179676972448,69.50000000000001 1288.7820323027552,69.49999999999999" fill="#245537" opacity="0.75" />
<polygon points="1220.5,186.0 1140.3926501499395,120.00000000000001 1300.6073498500605,119.99999999999997" fill="#245537" opacity="0.67" />
<polygon points="1251.5,250.0 1160.567332602634,170.5 1342.432667397366,170.49999999999997" fill="#245537" opacity="0.59" />
<rect x="644" y="107" width="22" height="703" rx="8" fill="#352418" />
<polygon points="661.0,77.0 591.7179676972448,24.50000000000001 730.282032302755,24.499999999999986" fill="#245537" opacity="0.75" />
<polygon points="639.0,141.0 558.8926501499394,75.00000000000001 719.1073498500606,74.99999999999997" fill="#245537" opacity="0.67" />
<polygon points="664.0,205.0 573.0673326026339,125.50000000000001 754.932667397366,125.49999999999997" fill="#245537" opacity="0.59" />
<polygon points="659.0,269.0 557.2420150553285,176.00000000000003 760.7579849446715,175.99999999999997" fill="#245537" opacity="0.51" />
<rect x="698" y="169" width="18" height="641" rx="8" fill="#352418" />
<polygon points="715.0,157.0 645.7179676972448,104.50000000000001 784.282032302755,104.49999999999999" fill="#245537" opacity="0.75" />
<polygon points="706.0,221.0 625.8926501499394,155.0 786.1073498500606,154.99999999999997" fill="#245537" opacity="0.67" />
<polygon points="689.0,285.0 598.0673326026339,205.5 779.932667397366,205.49999999999997" fill="#245537" opacity="0.59" />
<rect x="1450" y="142" width="30" height="668" rx="8" fill="#352418" />
<polygon points="1450.0,133.0 1380.7179676972448,80.50000000000001 1519.2820323027552,80.49999999999999" fill="#245537" opacity="0.75" />
<polygon points="1457.0,197.0 1376.8926501499395,131.0 1537.1073498500605,130.99999999999997" fill="#245537" opacity="0.67" />
<polygon points="1456.0,261.0 1365.067332602634,181.5 1546.932667397366,181.49999999999997" fill="#245537" opacity="0.59" />
<polygon points="1453.0,325.0 1351.2420150553285,232.00000000000003 1554.7579849446715,231.99999999999997" fill="#245537" opacity="0.51" />
<rect x="1023" y="146" width="25" height="664" rx="8" fill="#352418" />
<polygon points="1043.5,92.0 974.2179676972448,39.500000000000014 1112.7820323027552,39.499999999999986" fill="#245537" opacity="0.75" />
<polygon points="1026.5,156.0 946.3926501499394,90.00000000000001 1106.6073498500605,89.99999999999997" fill="#245537" opacity="0.67" />
<polygon points="1042.5,220.0 951.5673326026339,140.5 1133.432667397366,140.49999999999997" fill="#245537" opacity="0.59" />
<polygon points="1035.5,284.0 933.7420150553285,191.00000000000003 1137.2579849446715,190.99999999999997" fill="#245537" opacity="0.51" />
<rect x="1207" y="304" width="33" height="506" rx="8" fill="#352418" />
<polygon points="1234.5,293.0 1165.2179676972448,240.5 1303.7820323027552,240.5" fill="#245537" opacity="0.75" />
<polygon points="1233.5,357.0 1153.3926501499395,291.0 1313.6073498500605,291.0" fill="#245537" opacity="0.67" />
<polygon points="1228.5,421.0 1137.567332602634,341.5 1319.432667397366,341.5" fill="#245537" opacity="0.59" />
<polygon points="1213.5,485.0 1111.7420150553285,392.0 1315.2579849446715,392.0" fill="#245537" opacity="0.51" />
<rect x="185" y="71" width="29" height="739" rx="8" fill="#352418" />
<polygon points="203.5,36.0 134.2179676972449,-16.49999999999999 272.78203230275506,-16.500000000000014" fill="#245537" opacity="0.75" />
<polygon points="207.5,100.0 127.39265014993941,34.000000000000014 287.60734985006053,33.99999999999998" fill="#245537" opacity="0.67" />
<polygon points="186.5,164.0 95.56733260263393,84.50000000000001 277.432667397366,84.49999999999997" fill="#245537" opacity="0.59" />
<polygon points="192.5,228.0 90.74201505532844,135.00000000000003 294.25798494467153,134.99999999999997" fill="#245537" opacity="0.51" />
<rect x="1405" y="93" width="22" height="717" rx="8" fill="#352418" />
<polygon points="1430.0,81.0 1360.7179676972448,28.50000000000001 1499.2820323027552,28.499999999999986" fill="#245537" opacity="0.75" />
<polygon points="1408.0,145.0 1327.8926501499395,79.00000000000001 1488.1073498500605,78.99999999999997" fill="#245537" opacity="0.67" />
<polygon points="1416.0,209.0 1325.067332602634,129.5 1506.932667397366,129.49999999999997" fill="#245537" opacity="0.59" />
<polygon points="1427.0,273.0 1325.2420150553285,180.00000000000003 1528.7579849446715,179.99999999999997" fill="#245537" opacity="0.51" />
<rect x="204" y="210" width="22" height="600" rx="8" fill="#352418" />
<polygon points="232.0,187.0 162.7179676972449,134.5 301.28203230275506,134.5" fill="#245537" opacity="0.75" />
<polygon points="205.0,251.0 124.89265014993941,185.0 285.10734985006053,184.99999999999997" fill="#245537" opacity="0.67" />
<polygon points="198.0,315.0 107.06733260263393,235.5 288.932667397366,235.49999999999997" fill="#245537" opacity="0.59" />
<rect x="1449" y="143" width="27" height="667" rx="8" fill="#352418" />
<polygon points="1464.5,131.0 1395.2179676972448,78.50000000000001 1533.7820323027552,78.49999999999999" fill="#245537" opacity="0.75" />
<polygon points="1459.5,195.0 1379.3926501499395,129.0 1539.6073498500605,128.99999999999997" fill="#245537" opacity="0.67" />
<polygon points="1470.5,259.0 1379.567332602634,179.5 1561.432667397366,179.49999999999997" fill="#245537" opacity="0.59" />
<polygon points="1473.5,323.0 1371.7420150553285,230.00000000000003 1575.2579849446715,229.99999999999997" fill="#245537" opacity="0.51" />
<rect x="151" y="137" width="19" height="673" rx="8" fill="#352418" />
<polygon points="162.5,88.0 93.21796769724489,35.500000000000014 231.78203230275506,35.499999999999986" fill="#245537" opacity="0.75" />
<polygon points="170.5,152.0 90.39265014993941,86.00000000000001 250.60734985006053,85.99999999999997" fill="#245537" opacity="0.67" />
<polygon points="154.5,216.0 63.567332602633925,136.5 245.43266739736603,136.49999999999997" fill="#245537" opacity="0.59" />
<rect x="1568" y="51" width="23" height="759" rx="8" fill="#352418" />
<polygon points="1582.5,17.0 1513.2179676972448,-35.499999999999986 1651.7820323027552,-35.500000000000014" fill="#245537" opacity="0.75" />
<polygon points="1579.5,81.0 1499.3926501499395,15.00000000000001 1659.6073498500605,14.999999999999979" fill="#245537" opacity="0.67" />
<polygon points="1589.5,145.0 1498.567332602634,65.50000000000001 1680.432667397366,65.49999999999997" fill="#245537" opacity="0.59" />
<rect x="1012" y="120" width="25" height="690" rx="8" fill="#352418" />
<polygon points="1024.5,96.0 955.2179676972448,43.500000000000014 1093.7820323027552,43.499999999999986" fill="#245537" opacity="0.75" />
<polygon points="1037.5,160.0 957.3926501499394,94.00000000000001 1117.6073498500605,93.99999999999997" fill="#245537" opacity="0.67" />
<polygon points="1009.5,224.0 918.5673326026339,144.5 1100.432667397366,144.49999999999997" fill="#245537" opacity="0.59" />
<polygon points="1014.5,288.0 912.7420150553285,195.00000000000003 1116.2579849446715,194.99999999999997" fill="#245537" opacity="0.51" />
<rect x="210" y="78" width="23" height="732" rx="8" fill="#352418" />
<polygon points="212.5,55.0 143.2179676972449,2.5000000000000107 281.78203230275506,2.499999999999986" fill="#245537" opacity="0.75" />
<polygon points="217.5,119.0 137.3926501499394,53.000000000000014 297.60734985006053,52.99999999999998" fill="#245537" opacity="0.67" />
<polygon points="215.5,183.0 124.56733260263393,103.50000000000001 306.432667397366,103.49999999999997" fill="#245537" opacity="0.59" />
<rect x="273" y="262" width="31" height="548" rx="8" fill="#352418" />
<polygon points="278.5,247.0 209.2179676972449,194.5 347.78203230275506,194.5" fill="#245537" opacity="0.75" />
<polygon points="279.5,311.0 199.3926501499394,245.0 359.60734985006053,244.99999999999997" fill="#245537" opacity="0.67" />
<polygon points="277.5,375.0 186.56733260263394,295.5 368.432667397366,295.5" fill="#245537" opacity="0.59" />
<rect x="1334" y="78" width="31" height="732" rx="8" fill="#352418" />
<polygon points="1361.5,32.0 1292.2179676972448,-20.49999999999999 1430.7820323027552,-20.500000000000014" fill="#245537" opacity="0.75" />
<polygon points="1360.5,96.0 1280.3926501499395,30.00000000000001 1440.6073498500605,29.99999999999998" fill="#245537" opacity="0.67" />
<polygon points="1333.5,160.0 1242.567332602634,80.50000000000001 1424.432667397366,80.49999999999997" fill="#245537" opacity="0.59" />
<rect x="942" y="131" width="28" height="679" rx="8" fill="#352418" />
<polygon points="945.0,106.0 875.7179676972448,53.500000000000014 1014.282032302755,53.499999999999986" fill="#245537" opacity="0.75" />
<polygon points="943.0,170.0 862.8926501499394,104.00000000000001 1023.1073498500606,103.99999999999997" fill="#245537" opacity="0.67" />
<polygon points="958.0,234.0 867.0673326026339,154.5 1048.932667397366,154.49999999999997" fill="#245537" opacity="0.59" />
<rect x="1232" y="263" width="33" height="547" rx="8" fill="#352418" />
<polygon points="1246.5,258.0 1177.2179676972448,205.5 1315.7820323027552,205.5" fill="#245537" opacity="0.75" />
<polygon points="1252.5,322.0 1172.3926501499395,256.0 1332.6073498500605,255.99999999999997" fill="#245537" opacity="0.67" />
<polygon points="1244.5,386.0 1153.567332602634,306.5 1335.432667397366,306.5" fill="#245537" opacity="0.59" />
<polygon points="1255.5,450.0 1153.7420150553285,357.0 1357.2579849446715,357.0" fill="#245537" opacity="0.51" />
<rect x="342" y="61" width="27" height="749" rx="8" fill="#352418" />
<polygon points="357.5,50.0 288.2179676972449,-2.4999999999999893 426.78203230275506,-2.500000000000014" fill="#245537" opacity="0.75" />
<polygon points="362.5,114.0 282.3926501499394,48.000000000000014 442.60734985006053,47.99999999999998" fill="#245537" opacity="0.67" />
<polygon points="367.5,178.0 276.56733260263394,98.50000000000001 458.432667397366,98.49999999999997" fill="#245537" opacity="0.59" />
<polygon points="344.5,242.0 242.74201505532844,149.00000000000003 446.25798494467153,148.99999999999997" fill="#245537" opacity="0.51" />
<rect x="1555" y="228" width="25" height="582" rx="8" fill="#352418" />
<polygon points="1574.5,185.0 1505.2179676972448,132.5 1643.7820323027552,132.5" fill="#245537" opacity="0.75" />
<polygon points="1578.5,249.0 1498.3926501499395,183.0 1658.6073498500605,182.99999999999997" fill="#245537" opacity="0.67" />
<polygon points="1576.5,313.0 1485.567332602634,233.5 1667.432667397366,233.49999999999997" fill="#245537" opacity="0.59" />
<rect x="1263" y="277" width="30" height="533" rx="8" fill="#352418" />
<polygon points="1284.0,254.0 1214.7179676972448,201.5 1353.2820323027552,201.5" fill="#245537" opacity="0.75" />
<polygon points="1292.0,318.0 1211.8926501499395,252.0 1372.1073498500605,251.99999999999997" fill="#245537" opacity="0.67" />
<polygon points="1266.0,382.0 1175.067332602634,302.5 1356.932667397366,302.5" fill="#245537" opacity="0.59" />
<polygon points="1284.0,446.0 1182.2420150553285,353.0 1385.7579849446715,353.0" fill="#245537" opacity="0.51" />
<rect x="1049" y="282" width="33" height="528" rx="8" fill="#352418" />
<polygon points="1075.5,227.0 1006.2179676972448,174.5 1144.7820323027552,174.5" fill="#245537" opacity="0.75" />
<polygon points="1049.5,291.0 969.3926501499394,225.0 1129.6073498500605,224.99999999999997" fill="#245537" opacity="0.67" />
<polygon points="1064.5,355.0 973.5673326026339,275.5 1155.432667397366,275.5" fill="#245537" opacity="0.59" />
<polygon points="1077.5,419.0 975.7420150553285,326.0 1179.2579849446715,326.0" fill="#245537" opacity="0.51" />
</svg>