<svg xmlns="http://www.w3.org/2000/svg" width="1600" height="900" viewBox="0 0 1600 900">
<rect width="100%" height="100%" fill="rgba(0,0,0,0)" />
<rect width="100%" height="100%" fill="rgba(255,255,255,0.15)" />
<rect x="605" y="193" width="32" height="617" rx="8" fill="#2e1f15" />
<polygon points="616.0,161.0 546.7179676972448,108.50000000000001 685.282032302755,108.49999999999999" fill="#1f4b33" opacity="0.75" />
<polygon points="606.0,225.0 525.8926501499394,159.0 686.1073498500606,158.99999999999997" fill="#1f4b33" opacity="0.67" />
<polygon points="625.0,289.0 534.0673326026339,209.5 715.932667397366,209.49999999999997" fill="#1f4b33" opacity="0.59" />
<polygon points="606.0,353.0 504.24201505532847,260.0 707.7579849446715,260.0" fill="#1f4b33" opacity="0.51" />
<rect x="726" y="97" width="27" height="713" rx="8" fill="#2e1f15" />
<polygon points="757.5,50.0 688.2179676972448,-2.4999999999999893 826.782032302755,-2.500000000000014" fill="#1f4b33" opacity="0.75" />
<polygon points="749.5,114.0 669.3926501499394,48.000000000000014 829.6073498500606,47.99999999999998" fill="#1f4b33" opacity="0.67" />
<polygon points="735.5,178.0 644.5673326026339,98.50000000000001 826.432667397366,98.49999999999997" fill="#1f4b33" opacity="0.59" />
<polygon points="725.5,242.0 623.7420150553285,149.00000000000003 827.2579849446715,148.99999999999997" fill="#1f4b33" opacity="0.51" />
<rect x="913" y="239" width="31" height="571" rx="8" fill="#2e1f15" />
<polygon points="916.5,194.0 847.2179676972448,141.5 985.782032302755,141.5" fill="#1f4b33" opacity="0.75" />
<polygon points="935.5,258.0 855.3926501499394,192.0 1015.6073498500606,191.99999999999997" fill="#1f4b33" opacity="0.67" />
<polygon points="932.5,322.0 841.5673326026339,242.5 1023.432667397366,242.49999999999997" fill="#1f4b33" opacity="0.59" />
<polygon points="944.5,386.0 842.7420150553285,293.0 1046.2579849446715,293.0" fill="#1f4b33" opacity="0.51" />
<rect x="1217" y="200" width="28" height="610" rx="8" fill="#2e1f15" />
<polygon points="1219.0,176.0 1149.7179676972448,123.50000000000001 1288.2820323027552,123.49999999999999" fill="#1f4b33" opacity="0.75" />
<polygon points="1247.0,240.0 1166.8926501499395,174.0 1327.1073498500605,173.99999999999997" fill="#1f4b33" opacity="0.67" />
<polygon points="1217.0,304.0 1126.067332602634,224.5 1307.932667397366,224.49999999999997" fill="#1f4b33" opacity="0.59" />
<polygon points="1247.0,368.0 1145.2420150553285,275.0 1348.7579849446715,275.0" fill="#1f4b33" opacity="0.51" />
<rect x="979" y="58" width="30" height="752" rx="8" fill="#2e1f15" />
<polygon points="1012.0,32.0 942.7179676972448,-20.49999999999999 1081.2820323027552,-20.500000000000014" fill="#1f4b33" opacity="0.75" />
<polygon points="977.0,96.0 896.8926501499394,30.00000000000001 1057.1073498500605,29.99999999999998" fill="#1f4b33" opacity="0.67" />
<polygon points="988.0,160.0 897.0673326026339,80.50000000000001 1078.932667397366,80.49999999999997" fill="#1f4b33" opacity="0.59" />
<polygon points="990.0,224.0 888.2420150553285,131.00000000000003 1091.7579849446715,130.99999999999997" fill="#1f4b33" opacity="0.51" />
<rect x="891" y="74" width="19" height="736" rx="8" fill="#2e1f15" />
<polygon points="898.5,62.0 829.2179676972448,9.50000000000001 967.782032302755,9.499999999999986" fill="#1f4b33" opacity="0.75" />
<polygon points="898.5,126.0 818.3926501499394,60.000000000000014 978.6073498500606,59.99999999999998" fill="#1f4b33" opacity="0.67" />
<polygon points="916.5,190.0 825.5673326026339,110.50000000000001 1007.432667397366,110.49999999999997" fill="#1f4b33" opacity="0.59" />
<rect x="368" y="92" width="32" height="718" rx="8" fill="#2e1f15" />
<polygon points="366.0,58.0 296.7179676972449,5.500000000000011 435.28203230275506,5.499999999999986" fill="#1f4b33" opacity="0.75" />
<polygon points="372.0,122.0 291.8926501499394,56.000000000000014 452.10734985006053,55.99999999999998" fill="#1f4b33" opacity="0.67" />
<polygon points="381.0,186.0 290.06733260263394,106.50000000000001 471.932667397366,106.49999999999997" fill="#1f4b33" opacity="0.59" />
<polygon points="395.0,250.0 293.24201505532847,157.00000000000003 496.75798494467153,156.99999999999997" fill="#1f4b33" opacity="0.51" />
<rect x="290" y="236" width="20" height="574" rx="8" fill="#2e1f15" />
<polygon points="287.0,221.0 217.7179676972449,168.5 356.28203230275506,168.5" fill="#1f4b33" opacity="0.75" />
<polygon points="285.0,285.0 204.8926501499394,219.0 365.10734985006053,218.99999999999997" fill="#1f4b33" opacity="0.67" />
<polygon points="299.0,349.0 208.06733260263394,269.5 389.932667397366,269.5" fill="#1f4b33" opacity="0.59" />
<polygon points="293.0,413.0 191.24201505532844,320.0 394.75798494467153,320.0" fill="#1f4b33" opacity="0.51" />
<rect x="625" y="80" width="23" height="730" rx="8" fill="#2e1f15" />
<polygon points="654.5,65.0 585.2179676972448,12.50000000000001 723.782032302755,12.499999999999986" fill="#1f4b33" opacity="0.75" />
<polygon points="646.5,129.0 566.3926501499394,63.000000000000014 726.6073498500606,62.99999999999998" fill="#1f4b33" opacity="0.67" />
<polygon points="654.5,193.0 563.5673326026339,113.50000000000001 745.432667397366,113.49999999999997" fill="#1f4b33" opacity="0.59" />
<polygon points="623.5,257.0 521.7420150553285,164.00000000000003 725.2579849446715,163.99999999999997" fill="#1f4b33" opacity="0.51" />
<rect x="920" y="221" width="32" height="589" rx="8" fill="#2e1f15" />
<polygon points="941.0,201.0 871.7179676972448,148.5 1010.282032302755,148.5" fill="#1f4b33" opacity="0.75" />
<polygon points="934.0,265.0 853.8926501499394,199.0 1014.1073498500606,198.99999999999997" fill="#1f4b33" opacity="0.67" />
<polygon points="924.0,329.0 833.0673326026339,249.5 1014.932667397366,249.49999999999997" fill="#1f4b33" opacity="0.59" />
<rect x="958" y="280" width="26" height="530" rx="8" fill="#2e1f15" />
<polygon points="956.0,237.0 886.7179676972448,184.5 1025.2820323027552,184.5" fill="#1f4b33" opacity="0.75" />
<polygon points="955.0,301.0 874.8926501499394,235.0 1035.1073498500605,234.99999999999997" fill="#1f4b33" opacity="0.67" />
<polygon points="957.0,365.0 866.0673326026339,285.5 1047.932667397366,285.5" fill="#1f4b33" opacity="0.59" />
<polygon points="957.0,429.0 855.2420150553285,336.0 1058.7579849446715,336.0" fill="#1f4b33" opacity="0.51" />
<rect x="132" y="213" width="22" height="597" rx="8" fill="#2e1f15" />
<polygon points="149.0,160.0 79.71796769724489,107.50000000000001 218.28203230275506,107.49999999999999" fill="#1f4b33" opacity="0.75" />
<polygon points="138.0,224.0 57.89265014993941,158.0 218.10734985006053,157.99999999999997" fill="#1f4b33" opacity="0.67" />
<polygon points="143.0,288.0 52.067332602633925,208.5 233.93266739736603,208.49999999999997" fill="#1f4b33" opacity="0.59" />
<rect x="939" y="215" width="30" height="595" rx="8" fill="#2e1f15" />
<polygon points="956.0,176.0 886.7179676972448,123.50000000000001 1025.2820323027552,123.49999999999999" fill="#1f4b33" opacity="0.75" />
<polygon points="956.0,240.0 875.8926501499394,174.0 1036.1073498500605,173.99999999999997" fill="#1f4b33" opacity="0.67" />
<polygon points="967.0,304.0 876.0673326026339,224.5 1057.932667397366,224.49999999999997" fill="#1f4b33" opacity="0.59" />
<rect x="245" y="311" width="18" height="499" rx="8" fill="#2e1f15" />
<polygon points="244.0,260.0 174.7179676972449,207.5 313.28203230275506,207.5" fill="#1f4b33" opacity="0.75" />
<polygon points="246.0,324.0 165.8926501499394,258.0 326.10734985006053,258.0" fill="#1f4b33" opacity="0.67" />
<polygon points="272.0,388.0 181.06733260263394,308.5 362.932667397366,308.5" fill="#1f4b33" opacity="0.59" />
<polygon points="239.0,452.0 137.24201505532844,359.0 340.75798494467153,359.0" fill="#1f4b33" opacity="0.51" />
<rect x="665" y="176" width="32" height="634" rx="8" fill="#2e1f15" />
<polygon points="691.0,158.0 621.7179676972448,105.50000000000001 760.282032302755,105.49999999999999" fill="#1f4b33" opacity="0.75" />
<polygon points="669.0,222.0 588.8926501499394,156.0 749.1073498500606,155.99999999999997" fill="#1f4b33" opacity="0.67" />
<polygon points="687.0,286.0 596.0673326026339,206.5 777.932667397366,206.49999999999997" fill="#1f4b33" opacity="0.59" />
<rect x="981" y="161" width="29" height="649" rx="8" fill="#2e1f15" />
<polygon points="981.5,115.0 912.2179676972448,62.500000000000014 1050.7820323027552,62.499999999999986" fill="#1f4b33" opacity="0.75" />
<polygon points="998.5,179.0 918.3926501499394,113.00000000000001 1078.6073498500605,112.99999999999997" fill="#1f4b33" opacity="0.67" />
<polygon points="1006.5,243.0 915.5673326026339,163.5 1097.432667397366,163.49999999999997" fill="#1f4b33" opacity="0.59" />
<polygon points="999.5,307.0 897.7420150553285,214.00000000000003 1101.2579849446715,213.99999999999997" fill="#1f4b33" opacity="0.51" />
<rect x="1254" y="98" width="28" height="712" rx="8" fill="#2e1f15" />
<polygon points="1259.0,77.0 1189.7179676972448,24.50000000000001 1328.2820323027552,24.499999999999986" fill="#1f4b33" opacity="0.75" />
<polygon points="1286.0,141.0 1205.8926501499395,75.00000000000001 1366.1073498500605,74.99999999999997" fill="#1f4b33" opacity="0.67" />
<polygon points="1284.0,205.0 1193.067332602634,125.50000000000001 1374.932667397366,125.49999999999997" fill="#1f4b33" opacity="0.59" />
<rect x="292" y="95" width="18" height="715" rx="8" fill="#2e1f15" />
<polygon points="286.0,52.0 216.7179676972449,-0.49999999999998934 355.28203230275506,-0.5000000000000142" fill="#1f4b33" opacity="0.75" />
<polygon points="319.0,116.0 238.8926501499394,50.000000000000014 399.10734985006053,49.99999999999998" fill="#1f4b33" opacity="0.67" />
<polygon points="311.0,180.0 220.06733260263394,100.50000000000001 401.932667397366,100.49999999999997" fill="#1f4b33" opacity="0.59" />
<rect x="52" y="144" width="22" height="666" rx="8" fill="#2e1f15" />
<polygon points="57.00000000000001,126.0 -12.282032302755113,73.50000000000001 126.28203230275507,73.49999999999999" fill="#1f4b33" opacity="0.75" />
<polygon points="65.0,190.0 -15.107349850060587,124.00000000000001 145.10734985006053,123.99999999999997" fill="#1f4b33" opacity="0.67" />
<polygon points="64.0,254.0 -26.932667397366075,174.5 154.93266739736603,174.49999999999997" fill="#1f4b33" opacity="0.59" />
<rect x="589" y="133" width="31" height="677" rx="8" fill="#2e1f15" />
<polygon points="596.5,102.0 527.2179676972448,49.500000000000014 665.782032302755,49.499999999999986" fill="#1f4b33" opacity="0.75" />
<polygon points="621.5,166.0 541.3926501499394,100.00000000000001 701.6073498500606,99.99999999999997" fill="#1f4b33" opacity="0.67" />
<polygon points="589.5,230.0 498.56733260263394,150.5 680.432667397366,150.49999999999997" fill="#1f4b33" opacity="0.59" />
<polygon points="597.5,294.0 495.74201505532847,201.00000000000003 699.2579849446715,200.99999999999997" fill="#1f4b33" opacity="0.51" />
<rect x="1511" y="63" width="26" height="747" rx="8" fill="#2e1f15" />
<polygon points="1521.0,19.0 1451.7179676972448,-33.499999999999986 1590.2820323027552,-33.500000000000014" fill="#1f4b33" opacity="0.75" />
<polygon points="1541.0,83.0 1460.8926501499395,17.00000000000001 1621.1073498500605,16.99999999999998" fill="#1f4b33" opacity="0.67" />
<polygon points="1539.0,147.0 1448.067332602634,67.50000000000001 1629.932667397366,67.49999999999997" fill="#1f4b33" opacity="0.59" />
<rect x="1574" y="191" width="29" height="619" rx="8" fill="#2e1f15" />
<polygon points="1581.5,170.0 1512.2179676972448,117.50000000000001 1650.7820323027552,117.49999999999999" fill="#1f4b33" opacity="0.75" />
<polygon points="1602.5,234.0 1522.3926501499395,168.0 1682.6073498500605,167.99999999999997" fill="#1f4b33" opacity="0.67" />
<polygon points="1603.5,298.0 1512.567332602634,218.5 1694.432667397366,218.49999999999997" fill="#1f4b33" opacity="0.59" />
<polygon points="1591.5,362.0 1489.7420150553285,269.0 1693.2579849446715,269.0" fill="#1f4b33" opacity="0.51" />
<rect x="1510" y="144" width="21" height="666" rx="8" fill="#2e1f15" />
<polygon points="1505.5,131.0 1436.2179676972448,78.50000000000001 1574.7820323027552,78.49999999999999" fill="#1f4b33" opacity="0.75" />
<polygon points="1508.5,195.0 1428.3926501499395,129.0 1588.6073498500605,128.99999999999997" fill="#1f4b33" opacity="0.67" />
<polygon points="1533.5,259.0 1442.567332602634,179.5 1624.432667397366,179.49999999999997" fill="#1f4b33" opacity="0.59" />
<polygon points="1518.5,323.0 1416.7420150553285,230.00000000000003 1620.2579849446715,229.99999999999997" fill="#1f4b33" opacity="0.51" />
<rect x="919" y="289" width="23" height="521" rx="8" fill="#2e1f15" />
<polygon points="943.5,253.0 874.2179676972448,200.5 1012.782032302755,200.5" fill="#1f4b33" opacity="0.75" />
<polygon points="918.5,317.0 838.3926501499394,251.0 998.6073498500606,250.99999999999997" fill="#1f4b33" opacity="0.67" />
<polygon points="918.5,381.0 827.5673326026339,301.5 1009.432667397366,301.5" fill="#1f4b33" opacity="0.59" />
<polygon points="919.5,445.0 817.7420150553285,352.0 1021.2579849446715,352.0" fill="#1f4b33" opacity="0.51" />
<rect x="380" y="215" width="31" height="595" rx="8" fill="#2e1f15" />
<polygon points="382.5,161.0 313.2179676972449,108.50000000000001 451.78203230275506,108.49999999999999" fill="#1f4b33" opacity="0.75" />
<polygon points="411.5,225.0 331.3926501499394,159.0 491.60734985006053,158.99999999999997" fill="#1f4b33" opacity="0.67" />
<polygon points="398.5,289.0 307.56733260263394,209.5 489.432667397366,209.49999999999997" fill="#1f4b33" opacity="0.59" />
<polygon points="378.5,353.0 276.74201505532847,260.0 480.25798494467153,260.0" fill="#1f4b33" opacity="0.51" />
<rect x="517" y="110" width="20" height="700" rx="8" fill="#2e1f15" />
<polygon points="532.0,86.0 462.7179676972449,33.500000000000014 601.282032302755,33.499999999999986" fill="#1f4b33" opacity="0.75" />
<polygon points="526.0,150.0 445.8926501499394,84.00000000000001 606.1073498500606,83.99999999999997" fill="#1f4b33" opacity="0.67" />
<polygon points="527.0,214.0 436.06733260263394,134.5 617.932667397366,134.49999999999997" fill="#1f4b33" opacity="0.59" />
<polygon points="528.0,278.0 426.24201505532847,185.00000000000003 629.7579849446715,184.99999999999997" fill="#1f4b33" opacity="0.51" />
<rect x="13" y="243" width="27" height="567" rx="8" fill="#2e1f15" />
<polygon points="19.500000000000004,221.0 -49.78203230275511,168.5 88.78203230275507,168.5" fill="#1f4b33" opacity="0.75" />
<polygon points="21.500000000000007,285.0 -58.60734985006059,219.0 101.60734985006054,218.99999999999997" fill="#1f4b33" opacity="0.67" />
<polygon points="19.500000000000007,349.0 -71.43266739736607,269.5 110.43266739736603,269.5" fill="#1f4b33" opacity="0.59" />
<rect x="841" y="125" width="33" height="685" rx="8" fill="#2e1f15" />
<polygon points="856.5,73.0 787.2179676972448,20.50000000000001 925.782032302755,20.499999999999986" fill="#1f4b33" opacity="0.75" />
<polygon points="875.5,137.0 795.3926501499394,71.00000000000001 955.6073498500606,70.99999999999997" fill="#1f4b33" opacity="0.67" />
<polygon points="847.5,201.0 756.5673326026339,121.50000000000001 938.432667397366,121.49999999999997" fill="#1f4b33" opacity="0.59" />
<polygon points="864.5,265.0 762.7420150553285,172.00000000000003 966.2579849446715,171.99999999999997" fill="#1f4b33" opacity="0.51" />
</svg>