<svg xmlns="http://www.w3.org/2000/svg" width="1600" height="900" viewBox="0 0 1600 900">
<rect width="100%" height="100%" fill="rgba(0,0,0,0)" />
<rect width="100%" height="100%" fill="rgba(255,255,255,0.03)" />
<rect x="1176" y="247" width="33" height="563" rx="8" fill="#3c2a19" />
<polygon points="1183.5,217.0 1114.2179676972448,164.5 1252.7820323027552,164.5" fill="#2f7d4e" opacity="0.75" />
<polygon points="1192.5,281.0 1112.3926501499395,215.0 1272.6073498500605,214.99999999999997" fill="#2f7d4e" opacity="0.67" />
<polygon points="1205.5,345.0 1114.567332602634,265.5 1296.432667397366,265.5" fill="#2f7d4e" opacity="0.59" />
<rect x="1077" y="252" width="25" height="558" rx="8" fill="#3c2a19" />
<polygon points="1097.5,241.0 1028.2179676972448,188.5 1166.7820323027552,188.5" fill="#2f7d4e" opacity="0.75" />
<polygon points="1091.5,305.0 1011.3926501499394,239.0 1171.6073498500605,238.99999999999997" fill="#2f7d4e" opacity="0.67" />
<polygon points="1104.5,369.0 1013.5673326026339,289.5 1195.432667397366,289.5" fill="#2f7d4e" opacity="0.59" />
<polygon points="1091.5,433.0 989.7420150553285,340.0 1193.2579849446715,340.0" fill="#2f7d4e" opacity="0.51" />
<rect x="1206" y="110" width="24" height="700" rx="8" fill="#3c2a19" />
<polygon points="1205.0,104.0 1135.7179676972448,51.500000000000014 1274.2820323027552,51.499999999999986" fill="#2f7d4e" opacity="0.75" />
<polygon points="1223.0,168.0 1142.8926501499395,102.00000000000001 1303.1073498500605,101.99999999999997" fill="#2f7d4e" opacity="0.67" />
<polygon points="1209.0,232.0 1118.067332602634,152.5 1299.932667397366,152.49999999999997" fill="#2f7d4e" opacity="0.59" />
<rect x="423" y="252" width="25" height="558" rx="8" fill="#3c2a19" />
<polygon points="426.5,221.0 357.2179676972449,168.5 495.78203230275506,168.5" fill="#2f7d4e" opacity="0.75" />
<polygon points="443.5,285.0 363.3926501499394,219.0 523.6073498500606,218.99999999999997" fill="#2f7d4e" opacity="0.67" />
<polygon points="449.5,349.0 358.56733260263394,269.5 540.432667397366,269.5" fill="#2f7d4e" opacity="0.59" />
<rect x="528" y="230" width="26" height="580" rx="8" fill="#3c2a19" />
<polygon points="559.0,197.0 489.7179676972449,144.5 628.282032302755,144.5" fill="#2f7d4e" opacity="0.75" />
<polygon points="534.0,261.0 453.8926501499394,195.0 614.1073498500606,194.99999999999997" fill="#2f7d4e" opacity="0.67" />
<polygon points="549.0,325.0 458.06733260263394,245.5 639.932667397366,245.49999999999997" fill="#2f7d4e" opacity="0.59" />
<polygon points="556.0,389.0 454.24201505532847,296.0 657.7579849446715,296.0" fill="#2f7d4e" opacity="0.51" />
<rect x="1572" y="178" width="25" height="632" rx="8" fill="#3c2a19" />
<polygon points="1568.5,169.0 1499.2179676972448,116.50000000000001 1637.7820323027552,116.49999999999999" fill="#2f7d4e" opacity="0.75" />
<polygon points="1567.5,233.0 1487.3926501499395,167.0 1647.6073498500605,166.99999999999997" fill="#2f7d4e" opacity="0.67" />
<polygon points="1574.5,297.0 1483.567332602634,217.5 1665.432667397366,217.49999999999997" fill="#2f7d4e" opacity="0.59" />
<polygon points="1597.5,361.0 1495.7420150553285,268.0 1699.2579849446715,268.0" fill="#2f7d4e" opacity="0.51" />
<rect x="580" y="269" width="32" height="541" rx="8" fill="#3c2a19" />
<polygon points="603.0,245.0 533.7179676972448,192.5 672.282032302755,192.5" fill="#2f7d4e" opacity="0.75" />
<polygon points="585.0,309.0 504.8926501499394,243.0 665.1073498500606,242.99999999999997" fill="#2f7d4e" opacity="0.67" />
<polygon points="614.0,373.0 523.0673326026339,293.5 704.932667397366,293.5" fill="#2f7d4e" opacity="0.59" />
<polygon points="608.0,437.0 506.24201505532847,344.0 709.7579849446715,344.0" fill="#2f7d4e" opacity="0.51" />
<rect x="876" y="119" width="21" height="691" rx="8" fill="#3c2a19" />
<polygon points="899.5,91.0 830.2179676972448,38.500000000000014 968.782032302755,38.499999999999986" fill="#2f7d4e" opacity="0.75" />
<polygon points="875.5,155.0 795.3926501499394,89.00000000000001 955.6073498500606,88.99999999999997" fill="#2f7d4e" opacity="0.67" />
<polygon points="891.5,219.0 800.5673326026339,139.5 982.432667397366,139.49999999999997" fill="#2f7d4e" opacity="0.59" />
<rect x="314" y="265" width="20" height="545" rx="8" fill="#3c2a19" />
<polygon points="327.0,253.0 257.7179676972449,200.5 396.28203230275506,200.5" fill="#2f7d4e" opacity="0.75" />
<polygon points="313.0,317.0 232.8926501499394,251.0 393.10734985006053,250.99999999999997" fill="#2f7d4e" opacity="0.67" />
<polygon points="306.0,381.0 215.06733260263394,301.5 396.932667397366,301.5" fill="#2f7d4e" opacity="0.59" />
<rect x="110" y="288" width="29" height="522" rx="8" fill="#3c2a19" />
<polygon points="114.5,261.0 45.21796769724489,208.5 183.78203230275506,208.5" fill="#2f7d4e" opacity="0.75" />
<polygon points="139.5,325.0 59.39265014993941,259.0 219.60734985006053,259.0" fill="#2f7d4e" opacity="0.67" />
<polygon points="132.5,389.0 41.567332602633925,309.5 223.43266739736603,309.5" fill="#2f7d4e" opacity="0.59" />
<rect x="1345" y="196" width="25" height="614" rx="8" fill="#3c2a19" />
<polygon points="1348.5,161.0 1279.2179676972448,108.50000000000001 1417.7820323027552,108.49999999999999" fill="#2f7d4e" opacity="0.75" />
<polygon points="1363.5,225.0 1283.3926501499395,159.0 1443.6073498500605,158.99999999999997" fill="#2f7d4e" opacity="0.67" />
<polygon points="1346.5,289.0 1255.567332602634,209.5 1437.432667397366,209.49999999999997" fill="#2f7d4e" opacity="0.59" />
<polygon points="1361.5,353.0 1259.7420150553285,260.0 1463.2579849446715,260.0" fill="#2f7d4e" opacity="0.51" />
<rect x="754" y="305" width="21" height="505" rx="8" fill="#3c2a19" />
<polygon points="756.5,265.0 687.2179676972448,212.5 825.782032302755,212.5" fill="#2f7d4e" opacity="0.75" />
<polygon points="779.5,329.0 699.3926501499394,263.0 859.6073498500606,263.0" fill="#2f7d4e" opacity="0.67" />
<polygon points="762.5,393.0 671.5673326026339,313.5 853.432667397366,313.5" fill="#2f7d4e" opacity="0.59" />
<rect x="1320" y="304" width="21" height="506" rx="8" fill="#3c2a19" />
<polygon points="1335.5,291.0 1266.2179676972448,238.5 1404.7820323027552,238.5" fill="#2f7d4e" opacity="0.75" />
<polygon points="1345.5,355.0 1265.3926501499395,289.0 1425.6073498500605,289.0" fill="#2f7d4e" opacity="0.67" />
<polygon points="1336.5,419.0 1245.567332602634,339.5 1427.432667397366,339.5" fill="#2f7d4e" opacity="0.59" />
<polygon points="1327.5,483.0 1225.7420150553285,390.0 1429.2579849446715,390.0" fill="#2f7d4e" opacity="0.51" />
<rect x="1224" y="263" width="18" height="547" rx="8" fill="#3c2a19" />
<polygon points="1248.0,254.0 1178.7179676972448,201.5 1317.2820323027552,201.5" fill="#2f7d4e" opacity="0.75" />
<polygon points="1229.0,318.0 1148.8926501499395,252.0 1309.1073498500605,251.99999999999997" fill="#2f7d4e" opacity="0.67" />
<polygon points="1245.0,382.0 1154.067332602634,302.5 1335.932667397366,302.5" fill="#2f7d4e" opacity="0.59" />
<polygon points="1223.0,446.0 1121.2420150553285,353.0 1324.7579849446715,353.0" fill="#2f7d4e" opacity="0.51" />
<rect x="1512" y="259" width="22" height="551" rx="8" fill="#3c2a19" />
<polygon points="1519.0,233.0 1449.7179676972448,180.5 1588.2820323027552,180.5" fill="#2f7d4e" opacity="0.75" />
<polygon points="1526.0,297.0 1445.8926501499395,231.0 1606.1073498500605,230.99999999999997" fill="#2f7d4e" opacity="0.67" />
<polygon points="1505.0,361.0 1414.067332602634,281.5 1595.932667397366,281.5" fill="#2f7d4e" opacity="0.59" />
<polygon points="1522.0,425.0 1420.2420150553285,332.0 1623.7579849446715,332.0" fill="#2f7d4e" opacity="0.51" />
<rect x="528" y="85" width="34" height="725" rx="8" fill="#3c2a19" />
<polygon points="544.0,34.0 474.7179676972449,-18.49999999999999 613.282032302755,-18.500000000000014" fill="#2f7d4e" opacity="0.75" />
<polygon points="548.0,98.0 467.8926501499394,32.000000000000014 628.1073498500606,31.99999999999998" fill="#2f7d4e" opacity="0.67" />
<polygon points="530.0,162.0 439.06733260263394,82.50000000000001 620.932667397366,82.49999999999997" fill="#2f7d4e" opacity="0.59" />
<polygon points="527.0,226.0 425.24201505532847,133.00000000000003 628.7579849446715,132.99999999999997" fill="#2f7d4e" opacity="0.51" />
<rect x="953" y="264" width="21" height="546" rx="8" fill="#3c2a19" />
<polygon points="953.5,259.0 884.2179676972448,206.5 1022.782032302755,206.5" fill="#2f7d4e" opacity="0.75" />
<polygon points="972.5,323.0 892.3926501499394,257.0 1052.6073498500605,257.0" fill="#2f7d4e" opacity="0.67" />
<polygon points="954.5,387.0 863.5673326026339,307.5 1045.432667397366,307.5" fill="#2f7d4e" opacity="0.59" />
<polygon points="947.5,451.0 845.7420150553285,358.0 1049.2579849446715,358.0" fill="#2f7d4e" opacity="0.51" />
<rect x="829" y="203" width="30" height="607" rx="8" fill="#3c2a19" />
<polygon points="847.0,187.0 777.7179676972448,134.5 916.282032302755,134.5" fill="#2f7d4e" opacity="0.75" />
<polygon points="826.0,251.0 745.8926501499394,185.0 906.1073498500606,184.99999999999997" fill="#2f7d4e" opacity="0.67" />
<polygon points="829.0,315.0 738.0673326026339,235.5 919.932667397366,235.49999999999997" fill="#2f7d4e" opacity="0.59" />
<rect x="1365" y="209" width="19" height="601" rx="8" fill="#3c2a19" />
<polygon points="1392.5,184.0 1323.2179676972448,131.5 1461.7820323027552,131.5" fill="#2f7d4e" opacity="0.75" />
<polygon points="1389.5,248.0 1309.3926501499395,182.0 1469.6073498500605,181.99999999999997" fill="#2f7d4e" opacity="0.67" />
<polygon points="1360.5,312.0 1269.567332602634,232.5 1451.432667397366,232.49999999999997" fill="#2f7d4e" opacity="0.59" />
<rect x="1437" y="242" width="34" height="568" rx="8" fill="#3c2a19" />
<polygon points="1460.0,236.0 1390.7179676972448,183.5 1529.2820323027552,183.5" fill="#2f7d4e" opacity="0.75" />
<polygon points="1460.0,300.0 1379.8926501499395,234.0 1540.1073498500605,233.99999999999997" fill="#2f7d4e" opacity="0.67" />
<polygon points="1439.0,364.0 1348.067332602634,284.5 1529.932667397366,284.5" fill="#2f7d4e" opacity="0.59" />
</svg>