<svg xmlns="http://www.w3.org/2000/svg" width="1600" height="900" viewBox="0 0 1600 900">
<rect width="100%" height="100%" fill="rgba(0,0,0,0)" />
<rect width="100%" height="100%" fill="rgba(255,255,255,0.18)" />
<rect x="305" y="46" width="18" height="764" rx="8" fill="#362518" />
<polygon points="327.0,19.0 257.7179676972449,-33.499999999999986 396.28203230275506,-33.500000000000014" fill="#305f44" opacity="0.75" />
<polygon points="306.0,83.0 225.8926501499394,17.00000000000001 386.10734985006053,16.99999999999998" fill="#305f44" opacity="0.67" />
<polygon points="320.0,147.0 229.06733260263394,67.50000000000001 410.932667397366,67.49999999999997" fill="#305f44" opacity="0.59" />
<rect x="944" y="301" width="30" height="509" rx="8" fill="#362518" />
<polygon points="966.0,269.0 896.7179676972448,216.5 1035.2820323027552,216.5" fill="#305f44" opacity="0.75" />
<polygon points="955.0,333.0 874.8926501499394,267.0 1035.1073498500605,267.0" fill="#305f44" opacity="0.67" />
<polygon points="956.0,397.0 865.0673326026339,317.5 1046.932667397366,317.5" fill="#305f44" opacity="0.59" />
<rect x="1546" y="223" width="25" height="587" rx="8" fill="#362518" />
<polygon points="1567.5,195.0 1498.2179676972448,142.5 1636.7820323027552,142.5" fill="#305f44" opacity="0.75" />
<polygon points="1570.5,259.0 1490.3926501499395,193.0 1650.6073498500605,192.99999999999997" fill="#305f44" opacity="0.67" />
<polygon points="1546.5,323.0 1455.567332602634,243.5 1637.432667397366,243.49999999999997" fill="#305f44" opacity="0.59" />
<rect x="1388" y="145" width="26" height="665" rx="8" fill="#362518" />
<polygon points="1418.0,113.0 1348.7179676972448,60.500000000000014 1487.2820323027552,60.499999999999986" fill="#305f44" opacity="0.75" />
<polygon points="1389.0,177.0 1308.8926501499395,111.00000000000001 1469.1073498500605,110.99999999999997" fill="#305f44" opacity="0.67" />
<polygon points="1399.0,241.0 1308.067332602634,161.5 1489.932667397366,161.49999999999997" fill="#305f44" opacity="0.59" />
<polygon points="1396.0,305.0 1294.2420150553285,212.00000000000003 1497.7579849446715,211.99999999999997" fill="#305f44" opacity="0.51" />
<rect x="872" y="96" width="34" height="714" rx="8" fill="#362518" />
<polygon points="907.0,69.0 837.7179676972448,16.50000000000001 976.282032302755,16.499999999999986" fill="#305f44" opacity="0.75" />
<polygon points="897.0,133.0 816.8926501499394,67.00000000000001 977.1073498500606,66.99999999999997" fill="#305f44" opacity="0.67" />
<polygon points="892.0,197.0 801.0673326026339,117.50000000000001 982.932667397366,117.49999999999997" fill="#305f44" opacity="0.59" />
<rect x="988" y="140" width="20" height="670" rx="8" fill="#362518" />
<polygon points="1005.0,103.0 935.7179676972448,50.500000000000014 1074.2820323027552,50.499999999999986" fill="#305f44" opacity="0.75" />
<polygon points="983.0,167.0 902.8926501499394,101.00000000000001 1063.1073498500605,100.99999999999997" fill="#305f44" opacity="0.67" />
<polygon points="985.0,231.0 894.0673326026339,151.5 1075.932667397366,151.49999999999997" fill="#305f44" opacity="0.59" />
<polygon points="994.0,295.0 892.2420150553285,202.00000000000003 1095.7579849446715,201.99999999999997" fill="#305f44" opacity="0.51" />
<rect x="138" y="273" width="20" height="537" rx="8" fill="#362518" />
<polygon points="137.0,243.0 67.71796769724489,190.5 206.28203230275506,190.5" fill="#305f44" opacity="0.75" />
<polygon points="132.0,307.0 51.89265014993941,241.0 212.10734985006053,240.99999999999997" fill="#305f44" opacity="0.67" />
<polygon points="135.0,371.0 44.067332602633925,291.5 225.93266739736603,291.5" fill="#305f44" opacity="0.59" />
<rect x="175" y="137" width="21" height="673" rx="8" fill="#362518" />
<polygon points="178.5,87.0 109.21796769724489,34.500000000000014 247.78203230275506,34.499999999999986" fill="#305f44" opacity="0.75" />
<polygon points="176.5,151.0 96.39265014993941,85.00000000000001 256.60734985006053,84.99999999999997" fill="#305f44" opacity="0.67" />
<polygon points="185.5,215.0 94.56733260263393,135.5 276.432667397366,135.49999999999997" fill="#305f44" opacity="0.59" />
<polygon points="184.5,279.0 82.74201505532844,186.00000000000003 286.25798494467153,185.99999999999997" fill="#305f44" opacity="0.51" />
<rect x="1314" y="189" width="21" height="621" rx="8" fill="#362518" />
<polygon points="1328.5,166.0 1259.2179676972448,113.50000000000001 1397.7820323027552,113.49999999999999" fill="#305f44" opacity="0.75" />
<polygon points="1315.5,230.0 1235.3926501499395,164.0 1395.6073498500605,163.99999999999997" fill="#305f44" opacity="0.67" />
<polygon points="1318.5,294.0 1227.567332602634,214.5 1409.432667397366,214.49999999999997" fill="#305f44" opacity="0.59" />
<polygon points="1329.5,358.0 1227.7420150553285,265.0 1431.2579849446715,265.0" fill="#305f44" opacity="0.51" />
<rect x="1548" y="92" width="25" height="718" rx="8" fill="#362518" />
<polygon points="1558.5,61.0 1489.2179676972448,8.50000000000001 1627.7820323027552,8.499999999999986" fill="#305f44" opacity="0.75" />
<polygon points="1575.5,125.0 1495.3926501499395,59.000000000000014 1655.6073498500605,58.99999999999998" fill="#305f44" opacity="0.67" />
<polygon points="1559.5,189.0 1468.567332602634,109.50000000000001 1650.432667397366,109.49999999999997" fill="#305f44" opacity="0.59" />
<polygon points="1553.5,253.0 1451.7420150553285,160.00000000000003 1655.2579849446715,159.99999999999997" fill="#305f44" opacity="0.51" />
<rect x="1520" y="282" width="30" height="528" rx="8" fill="#362518" />
<polygon points="1522.0,236.0 1452.7179676972448,183.5 1591.2820323027552,183.5" fill="#305f44" opacity="0.75" />
<polygon points="1528.0,300.0 1447.8926501499395,234.0 1608.1073498500605,233.99999999999997" fill="#305f44" opacity="0.67" />
<polygon points="1552.0,364.0 1461.067332602634,284.5 1642.932667397366,284.5" fill="#305f44" opacity="0.59" />
<rect x="1059" y="134" width="31" height="676" rx="8" fill="#362518" />
<polygon points="1071.5,129.0 1002.2179676972448,76.50000000000001 1140.7820323027552,76.49999999999999" fill="#305f44" opacity="0.75" />
<polygon points="1067.5,193.0 987.3926501499394,127.00000000000001 1147.6073498500605,126.99999999999997" fill="#305f44" opacity="0.67" />
<polygon points="1091.5,257.0 1000.5673326026339,177.5 1182.432667397366,177.49999999999997" fill="#305f44" opacity="0.59" />
<rect x="1033" y="262" width="26" height="548" rx="8" fill="#362518" />
<polygon points="1033.0,222.0 963.7179676972448,169.5 1102.2820323027552,169.5" fill="#305f44" opacity="0.75" />
<polygon points="1063.0,286.0 982.8926501499394,220.0 1143.1073498500605,219.99999999999997" fill="#305f44" opacity="0.67" />
<polygon points="1059.0,350.0 968.0673326026339,270.5 1149.932667397366,270.5" fill="#305f44" opacity="0.59" />
<rect x="184" y="275" width="28" height="535" rx="8" fill="#362518" />
<polygon points="200.0,227.0 130.7179676972449,174.5 269.28203230275506,174.5" fill="#305f44" opacity="0.75" />
<polygon points="185.0,291.0 104.89265014993941,225.0 265.10734985006053,224.99999999999997" fill="#305f44" opacity="0.67" />
<polygon points="186.0,355.0 95.06733260263393,275.5 276.932667397366,275.5" fill="#305f44" opacity="0.59" />
<polygon points="191.0,419.0 89.24201505532844,326.0 292.75798494467153,326.0" fill="#305f44" opacity="0.51" />
<rect x="193" y="141" width="28" height="669" rx="8" fill="#362518" />
<polygon points="203.0,108.0 133.7179676972449,55.500000000000014 272.28203230275506,55.499999999999986" fill="#305f44" opacity="0.75" />
<polygon points="199.0,172.0 118.89265014993941,106.00000000000001 279.10734985006053,105.99999999999997" fill="#305f44" opacity="0.67" />
<polygon points="225.0,236.0 134.06733260263394,156.5 315.932667397366,156.49999999999997" fill="#305f44" opacity="0.59" />
<polygon points="212.0,300.0 110.24201505532844,207.00000000000003 313.75798494467153,206.99999999999997" fill="#305f44" opacity="0.51" />
<rect x="551" y="158" width="26" height="652" rx="8" fill="#362518" />
<polygon points="580.0,134.0 510.7179676972449,81.50000000000001 649.282032302755,81.49999999999999" fill="#305f44" opacity="0.75" />
<polygon points="550.0,198.0 469.8926501499394,132.0 630.1073498500606,131.99999999999997" fill="#305f44" opacity="0.67" />
<polygon points="575.0,262.0 484.06733260263394,182.5 665.932667397366,182.49999999999997" fill="#305f44" opacity="0.59" />
<rect x="520" y="170" width="31" height="640" rx="8" fill="#362518" />
<polygon points="541.5,122.0 472.2179676972449,69.50000000000001 610.782032302755,69.49999999999999" fill="#305f44" opacity="0.75" />
<polygon points="542.5,186.0 462.3926501499394,120.00000000000001 622.6073498500606,119.99999999999997" fill="#305f44" opacity="0.67" />
<polygon points="549.5,250.0 458.56733260263394,170.5 640.432667397366,170.49999999999997" fill="#305f44" opacity="0.59" />
<rect x="946" y="288" width="30" height="522" rx="8" fill="#362518" />
<polygon points="946.0,251.0 876.7179676972448,198.5 1015.282032302755,198.5" fill="#305f44" opacity="0.75" />
<polygon points="950.0,315.0 869.8926501499394,249.0 1030.1073498500605,248.99999999999997" fill="#305f44" opacity="0.67" />
<polygon points="972.0,379.0 881.0673326026339,299.5 1062.932667397366,299.5" fill="#305f44" opacity="0.59" />
<rect x="1583" y="306" width="32" height="504" rx="8" fill="#362518" />
<polygon points="1604.0,270.0 1534.7179676972448,217.5 1673.2820323027552,217.5" fill="#305f44" opacity="0.75" />
<polygon points="1615.0,334.0 1534.8926501499395,268.0 1695.1073498500605,268.0" fill="#305f44" opacity="0.67" />
<polygon points="1584.0,398.0 1493.067332602634,318.5 1674.932667397366,318.5" fill="#305f44" opacity="0.59" />
<polygon points="1602.0,462.0 1500.2420150553285,369.0 1703.7579849446715,369.0" fill="#305f44" opacity="0.51" />
<rect x="636" y="106" width="29" height="704" rx="8" fill="#362518" />
<polygon points="650.5,78.0 581.2179676972448,25.50000000000001 719.782032302755,25.499999999999986" fill="#305f44" opacity="0.75" />
<polygon points="643.5,142.0 563.3926501499394,76.00000000000001 723.6073498500606,75.99999999999997" fill="#305f44" opacity="0.67" />
<polygon points="645.5,206.0 554.5673326026339,126.50000000000001 736.432667397366,126.49999999999997" fill="#305f44" opacity="0.59" />
<polygon points="644.5,270.0 542.7420150553285,177.00000000000003 746.2579849446715,176.99999999999997" fill="#305f44" opacity="0.51" />
<rect x="1106" y="269" width="19" height="541" rx="8" fill="#362518" />
<polygon points="1106.5,237.0 1037.2179676972448,184.5 1175.7820323027552,184.5" fill="#305f44" opacity="0.75" />
<polygon points="1100.5,301.0 1020.3926501499394,235.0 1180.6073498500605,234.99999999999997" fill="#305f44" opacity="0.67" />
<polygon points="1109.5,365.0 1018.5673326026339,285.5 1200.432667397366,285.5" fill="#305f44" opacity="0.59" />
<rect x="299" y="80" width="24" height="730" rx="8" fill="#362518" />
<polygon points="324.0,34.0 254.7179676972449,-18.49999999999999 393.28203230275506,-18.500000000000014" fill="#305f44" opacity="0.75" />
<polygon points="314.0,98.0 233.8926501499394,32.000000000000014 394.10734985006053,31.99999999999998" fill="#305f44" opacity="0.67" />
<polygon points="296.0,162.0 205.06733260263394,82.50000000000001 386.932667397366,82.49999999999997" fill="#305f44" opacity="0.59" />
<rect x="473" y="227" width="18" height="583" rx="8" fill="#362518" />
<polygon points="472.0,186.0 402.7179676972449,133.5 541.282032302755,133.5" fill="#305f44" opacity="0.75" />
<polygon points="497.0,250.0 416.8926501499394,184.0 577.1073498500606,183.99999999999997" fill="#305f44" opacity="0.67" />
<polygon points="488.0,314.0 397.06733260263394,234.5 578.932667397366,234.49999999999997" fill="#305f44" opacity="0.59" />
<rect x="1210" y="152" width="27" height="658" rx="8" fill="#362518" />
<polygon points="1232.5,137.0 1163.2179676972448,84.50000000000001 1301.7820323027552,84.49999999999999" fill="#305f44" opacity="0.75" />
<polygon points="1240.5,201.0 1160.3926501499395,135.0 1320.6073498500605,134.99999999999997" fill="#305f44" opacity="0.67" />
<polygon points="1240.5,265.0 1149.567332602634,185.5 1331.432667397366,185.49999999999997" fill="#305f44" opacity="0.59" />
<polygon points="1237.5,329.0 1135.7420150553285,236.00000000000003 1339.2579849446715,235.99999999999997" fill="#305f44" opacity="0.51" />
<rect x="20" y="90" width="19" height="720" rx="8" fill="#362518" />
<polygon points="22.500000000000004,81.0 -46.78203230275511,28.50000000000001 91.78203230275507,28.499999999999986" fill="#305f44" opacity="0.75" />
<polygon points="45.50000000000001,145.0 -34.60734985006059,79.00000000000001 125.60734985006054,78.99999999999997" fill="#305f44" opacity="0.67" />
<polygon points="40.50000000000001,209.0 -50.432667397366075,129.5 131.43266739736603,129.49999999999997" fill="#305f44" opacity="0.59" />
<rect x="332" y="77" width="25" height="733" rx="8" fill="#362518" />
<polygon points="333.5,65.0 264.2179676972449,12.50000000000001 402.78203230275506,12.499999999999986" fill="#305f44" opacity="0.75" />
<polygon points="350.5,129.0 270.3926501499394,63.000000000000014 430.60734985006053,62.99999999999998" fill="#305f44" opacity="0.67" />
<polygon points="344.5,193.0 253.56733260263394,113.50000000000001 435.432667397366,113.49999999999997" fill="#305f44" opacity="0.59" />
<polygon points="335.5,257.0 233.74201505532844,164.00000000000003 437.25798494467153,163.99999999999997" fill="#305f44" opacity="0.51" />
<rect x="608" y="303" width="34" height="507" rx="8" fill="#362518" />
<polygon points="640.0,254.0 570.7179676972448,201.5 709.282032302755,201.5" fill="#305f44" opacity="0.75" />
<polygon points="643.0,318.0 562.8926501499394,252.0 723.1073498500606,251.99999999999997" fill="#305f44" opacity="0.67" />
<polygon points="615.0,382.0 524.0673326026339,302.5 705.932667397366,302.5" fill="#305f44" opacity="0.59" />
<polygon points="627.0,446.0 525.2420150553285,353.0 728.7579849446715,353.0" fill="#305f44" opacity="0.51" />
<rect x="911" y="292" width="33" height="518" rx="8" fill="#362518" />
<polygon points="912.5,267.0 843.2179676972448,214.5 981.782032302755,214.5" fill="#305f44" opacity="0.75" />
<polygon points="921.5,331.0 841.3926501499394,265.0 1001.6073498500606,265.0" fill="#305f44" opacity="0.67" />
<polygon points="926.5,395.0 835.5673326026339,315.5 1017.432667397366,315.5" fill="#305f44" opacity="0.59" />
<rect x="213" y="54" width="32" height="756" rx="8" fill="#362518" />
<polygon points="229.0,48.0 159.7179676972449,-4.499999999999989 298.28203230275506,-4.500000000000014" fill="#305f44" opacity="0.75" />
<polygon points="232.0,112.0 151.8926501499394,46.000000000000014 312.10734985006053,45.99999999999998" fill="#305f44" opacity="0.67" />
<polygon points="238.0,176.0 147.06733260263394,96.50000000000001 328.932667397366,96.49999999999997" fill="#305f44" opacity="0.59" />
<rect x="1321" y="80" width="29" height="730" rx="8" fill="#362518" />
<polygon points="1351.5,42.0 1282.2179676972448,-10.49999999999999 1420.7820323027552,-10.500000000000014" fill="#305f44" opacity="0.75" />
<polygon points="1331.5,106.0 1251.3926501499395,40.000000000000014 1411.6073498500605,39.99999999999998" fill="#305f44" opacity="0.67" />
<polygon points="1326.5,170.0 1235.567332602634,90.50000000000001 1417.432667397366,90.49999999999997" fill="#305f44" opacity="0.59" />
</svg>