<svg xmlns="http://www.w3.org/2000/svg" width="1600" height="900" viewBox="0 0 1600 900">
<rect width="100%" height="100%" fill="rgba(0,0,0,0)" />
<rect width="100%" height="100%" fill="rgba(255,255,255,0.24)" />
<rect x="1162" y="254" width="28" height="556" rx="8" fill="#3b291a" />
<polygon points="1162.0,248.0 1092.7179676972448,195.5 1231.2820323027552,195.5" fill="#28573d" opacity="0.75" />
<polygon points="1186.0,312.0 1105.8926501499395,246.0 1266.1073498500605,245.99999999999997" fill="#28573d" opacity="0.67" />
<polygon points="1178.0,376.0 1087.067332602634,296.5 1268.932667397366,296.5" fill="#28573d" opacity="0.59" />
<rect x="40" y="130" width="29" height="680" rx="8" fill="#3b291a" />
<polygon points="61.50000000000001,121.0 -7.782032302755113,68.50000000000001 130.78203230275506,68.49999999999999" fill="#28573d" opacity="0.75" />
<polygon points="42.50000000000001,185.0 -37.60734985006059,119.00000000000001 122.60734985006054,118.99999999999997" fill="#28573d" opacity="0.67" />
<polygon points="72.5,249.0 -18.432667397366075,169.5 163.43266739736603,169.49999999999997" fill="#28573d" opacity="0.59" />
<rect x="837" y="239" width="23" height="571" rx="8" fill="#3b291a" />
<polygon points="865.5,229.0 796.2179676972448,176.5 934.782032302755,176.5" fill="#28573d" opacity="0.75" />
<polygon points="835.5,293.0 755.3926501499394,227.0 915.6073498500606,226.99999999999997" fill="#28573d" opacity="0.67" />
<polygon points="861.5,357.0 770.5673326026339,277.5 952.432667397366,277.5" fill="#28573d" opacity="0.59" />
<polygon points="833.5,421.0 731.7420150553285,328.0 935.2579849446715,328.0" fill="#28573d" opacity="0.51" />
<rect x="71" y="109" width="27" height="701" rx="8" fill="#3b291a" />
<polygon points="69.5,94.0 0.2179676972448874,41.500000000000014 138.78203230275506,41.499999999999986" fill="#28573d" opacity="0.75" />
<polygon points="102.5,158.0 22.392650149939413,92.00000000000001 182.60734985006053,91.99999999999997" fill="#28573d" opacity="0.67" />
<polygon points="99.5,222.0 8.567332602633925,142.5 190.43266739736603,142.49999999999997" fill="#28573d" opacity="0.59" />
<polygon points="101.50000000000001,286.0 -0.25798494467156274,193.00000000000003 203.2579849446715,192.99999999999997" fill="#28573d" opacity="0.51" />
<rect x="817" y="296" width="29" height="514" rx="8" fill="#3b291a" />
<polygon points="847.5,244.0 778.2179676972448,191.5 916.782032302755,191.5" fill="#28573d" opacity="0.75" />
<polygon points="836.5,308.0 756.3926501499394,242.0 916.6073498500606,241.99999999999997" fill="#28573d" opacity="0.67" />
<polygon points="843.5,372.0 752.5673326026339,292.5 934.432667397366,292.5" fill="#28573d" opacity="0.59" />
<rect x="1232" y="123" width="29" height="687" rx="8" fill="#3b291a" />
<polygon points="1233.5,117.0 1164.2179676972448,64.50000000000001 1302.7820323027552,64.49999999999999" fill="#28573d" opacity="0.75" />
<polygon points="1240.5,181.0 1160.3926501499395,115.00000000000001 1320.6073498500605,114.99999999999997" fill="#28573d" opacity="0.67" />
<polygon points="1258.5,245.0 1167.567332602634,165.5 1349.432667397366,165.49999999999997" fill="#28573d" opacity="0.59" />
<rect x="622" y="197" width="27" height="613" rx="8" fill="#3b291a" />
<polygon points="629.5,159.0 560.2179676972448,106.50000000000001 698.782032302755,106.49999999999999" fill="#28573d" opacity="0.75" />
<polygon points="628.5,223.0 548.3926501499394,157.0 708.6073498500606,156.99999999999997" fill="#28573d" opacity="0.67" />
<polygon points="640.5,287.0 549.5673326026339,207.5 731.432667397366,207.49999999999997" fill="#28573d" opacity="0.59" />
<rect x="926" y="169" width="30" height="641" rx="8" fill="#3b291a" />
<polygon points="954.0,162.0 884.7179676972448,109.50000000000001 1023.282032302755,109.49999999999999" fill="#28573d" opacity="0.75" />
<polygon points="958.0,226.0 877.8926501499394,160.0 1038.1073498500605,159.99999999999997" fill="#28573d" opacity="0.67" />
<polygon points="949.0,290.0 858.0673326026339,210.5 1039.932667397366,210.49999999999997" fill="#28573d" opacity="0.59" />
<rect x="46" y="249" width="30" height="561" rx="8" fill="#3b291a" />
<polygon points="76.0,229.0 6.717967697244887,176.5 145.28203230275506,176.5" fill="#28573d" opacity="0.75" />
<polygon points="76.0,293.0 -4.1073498500605865,227.0 156.10734985006053,226.99999999999997" fill="#28573d" opacity="0.67" />
<polygon points="43.00000000000001,357.0 -47.932667397366075,277.5 133.93266739736603,277.5" fill="#28573d" opacity="0.59" />
<polygon points="72.00000000000001,421.0 -29.757984944671563,328.0 173.7579849446715,328.0" fill="#28573d" opacity="0.51" />
<rect x="25" y="115" width="21" height="695" rx="8" fill="#3b291a" />
<polygon points="37.50000000000001,99.0 -31.782032302755113,46.500000000000014 106.78203230275507,46.499999999999986" fill="#28573d" opacity="0.75" />
<polygon points="20.500000000000007,163.0 -59.60734985006059,97.00000000000001 100.60734985006054,96.99999999999997" fill="#28573d" opacity="0.67" />
<polygon points="28.500000000000007,227.0 -62.432667397366075,147.5 119.43266739736603,147.49999999999997" fill="#28573d" opacity="0.59" />
<polygon points="30.500000000000007,291.0 -71.25798494467156,198.00000000000003 132.2579849446715,197.99999999999997" fill="#28573d" opacity="0.51" />
<rect x="973" y="116" width="23" height="694" rx="8" fill="#3b291a" />
<polygon points="993.5,91.0 924.2179676972448,38.500000000000014 1062.7820323027552,38.499999999999986" fill="#28573d" opacity="0.75" />
<polygon points="967.5,155.0 887.3926501499394,89.00000000000001 1047.6073498500605,88.99999999999997" fill="#28573d" opacity="0.67" />
<polygon points="969.5,219.0 878.5673326026339,139.5 1060.432667397366,139.49999999999997" fill="#28573d" opacity="0.59" />
<polygon points="995.5,283.0 893.7420150553285,190.00000000000003 1097.2579849446715,189.99999999999997" fill="#28573d" opacity="0.51" />
<rect x="121" y="195" width="29" height="615" rx="8" fill="#3b291a" />
<polygon points="124.5,140.0 55.21796769724489,87.50000000000001 193.78203230275506,87.49999999999999" fill="#28573d" opacity="0.75" />
<polygon points="134.5,204.0 54.39265014993941,138.0 214.60734985006053,137.99999999999997" fill="#28573d" opacity="0.67" />
<polygon points="132.5,268.0 41.567332602633925,188.5 223.43266739736603,188.49999999999997" fill="#28573d" opacity="0.59" />
<polygon points="129.5,332.0 27.742015055328437,239.00000000000003 231.2579849446715,238.99999999999997" fill="#28573d" opacity="0.51" />
<rect x="327" y="97" width="30" height="713" rx="8" fill="#3b291a" />
<polygon points="359.0,91.0 289.7179676972449,38.500000000000014 428.28203230275506,38.499999999999986" fill="#28573d" opacity="0.75" />
<polygon points="324.0,155.0 243.8926501499394,89.00000000000001 404.10734985006053,88.99999999999997" fill="#28573d" opacity="0.67" />
<polygon points="343.0,219.0 252.06733260263394,139.5 433.932667397366,139.49999999999997" fill="#28573d" opacity="0.59" />
<rect x="676" y="285" width="28" height="525" rx="8" fill="#3b291a" />
<polygon points="695.0,252.0 625.7179676972448,199.5 764.282032302755,199.5" fill="#28573d" opacity="0.75" />
<polygon points="683.0,316.0 602.8926501499394,250.0 763.1073498500606,249.99999999999997" fill="#28573d" opacity="0.67" />
<polygon points="687.0,380.0 596.0673326026339,300.5 777.932667397366,300.5" fill="#28573d" opacity="0.59" />
<polygon points="698.0,444.0 596.2420150553285,351.0 799.7579849446715,351.0" fill="#28573d" opacity="0.51" />
<rect x="1277" y="193" width="33" height="617" rx="8" fill="#3b291a" />
<polygon points="1292.5,179.0 1223.2179676972448,126.50000000000001 1361.7820323027552,126.49999999999999" fill="#28573d" opacity="0.75" />
<polygon points="1288.5,243.0 1208.3926501499395,177.0 1368.6073498500605,176.99999999999997" fill="#28573d" opacity="0.67" />
<polygon points="1299.5,307.0 1208.567332602634,227.5 1390.432667397366,227.49999999999997" fill="#28573d" opacity="0.59" />
<rect x="491" y="118" width="20" height="692" rx="8" fill="#3b291a" />
<polygon points="505.0,73.0 435.7179676972449,20.50000000000001 574.282032302755,20.499999999999986" fill="#28573d" opacity="0.75" />
<polygon points="496.0,137.0 415.8926501499394,71.00000000000001 576.1073498500606,70.99999999999997" fill="#28573d" opacity="0.67" />
<polygon points="485.0,201.0 394.06733260263394,121.50000000000001 575.932667397366,121.49999999999997" fill="#28573d" opacity="0.59" />
<polygon points="507.0,265.0 405.24201505532847,172.00000000000003 608.7579849446715,171.99999999999997" fill="#28573d" opacity="0.51" />
<rect x="981" y="75" width="33" height="735" rx="8" fill="#3b291a" />
<polygon points="1003.5,55.0 934.2179676972448,2.5000000000000107 1072.7820323027552,2.499999999999986" fill="#28573d" opacity="0.75" />
<polygon points="996.5,119.0 916.3926501499394,53.000000000000014 1076.6073498500605,52.99999999999998" fill="#28573d" opacity="0.67" />
<polygon points="1001.5,183.0 910.5673326026339,103.50000000000001 1092.432667397366,103.49999999999997" fill="#28573d" opacity="0.59" />
<polygon points="985.5,247.0 883.7420150553285,154.00000000000003 1087.2579849446715,153.99999999999997" fill="#28573d" opacity="0.51" />
<rect x="835" y="269" width="27" height="541" rx="8" fill="#3b291a" />
<polygon points="862.5,248.0 793.2179676972448,195.5 931.782032302755,195.5" fill="#28573d" opacity="0.75" />
<polygon points="853.5,312.0 773.3926501499394,246.0 933.6073498500606,245.99999999999997" fill="#28573d" opacity="0.67" />
<polygon points="859.5,376.0 768.5673326026339,296.5 950.432667397366,296.5" fill="#28573d" opacity="0.59" />
<polygon points="831.5,440.0 729.7420150553285,347.0 933.2579849446715,347.0" fill="#28573d" opacity="0.51" />
<rect x="1487" y="132" width="20" height="678" rx="8" fill="#3b291a" />
<polygon points="1499.0,123.0 1429.7179676972448,70.50000000000001 1568.2820323027552,70.49999999999999" fill="#28573d" opacity="0.75" />
<polygon points="1515.0,187.0 1434.8926501499395,121.00000000000001 1595.1073498500605,120.99999999999997" fill="#28573d" opacity="0.67" />
<polygon points="1501.0,251.0 1410.067332602634,171.5 1591.932667397366,171.49999999999997" fill="#28573d" opacity="0.59" />
<polygon points="1506.0,315.0 1404.2420150553285,222.00000000000003 1607.7579849446715,221.99999999999997" fill="#28573d" opacity="0.51" />
<rect x="1205" y="84" width="33" height="726" rx="8" fill="#3b291a" />
<polygon points="1236.5,67.0 1167.2179676972448,14.50000000000001 1305.7820323027552,14.499999999999986" fill="#28573d" opacity="0.75" />
<polygon points="1238.5,131.0 1158.3926501499395,65.00000000000001 1318.6073498500605,64.99999999999997" fill="#28573d" opacity="0.67" />
<polygon points="1232.5,195.0 1141.567332602634,115.50000000000001 1323.432667397366,115.49999999999997" fill="#28573d" opacity="0.59" />
<polygon points="1222.5,259.0 1120.7420150553285,166.00000000000003 1324.2579849446715,165.99999999999997" fill="#28573d" opacity="0.51" />
<rect x="937" y="168" width="20" height="642" rx="8" fill="#3b291a" />
<polygon points="952.0,120.0 882.7179676972448,67.50000000000001 1021.282032302755,67.49999999999999" fill="#28573d" opacity="0.75" />
<polygon points="950.0,184.0 869.8926501499394,118.00000000000001 1030.1073498500605,117.99999999999997" fill="#28573d" opacity="0.67" />
<polygon points="947.0,248.0 856.0673326026339,168.5 1037.932667397366,168.49999999999997" fill="#28573d" opacity="0.59" />
<polygon points="933.0,312.0 831.2420150553285,219.00000000000003 1034.7579849446715,218.99999999999997" fill="#28573d" opacity="0.51" />
<rect x="1339" y="141" width="29" height="669" rx="8" fill="#3b291a" />
<polygon points="1364.5,123.0 1295.2179676972448,70.50000000000001 1433.7820323027552,70.49999999999999" fill="#28573d" opacity="0.75" />
<polygon points="1348.5,187.0 1268.3926501499395,121.00000000000001 1428.6073498500605,120.99999999999997" fill="#28573d" opacity="0.67" />
<polygon points="1352.5,251.0 1261.567332602634,171.5 1443.432667397366,171.49999999999997" fill="#28573d" opacity="0.59" />
<polygon points="1351.5,315.0 1249.7420150553285,222.00000000000003 1453.2579849446715,221.99999999999997" fill="#28573d" opacity="0.51" />
<rect x="65" y="225" width="26" height="585" rx="8" fill="#3b291a" />
<polygon points="74.0,176.0 4.717967697244887,123.50000000000001 143.28203230275506,123.49999999999999" fill="#28573d" opacity="0.75" />
<polygon points="92.0,240.0 11.892650149939413,174.0 172.10734985006053,173.99999999999997" fill="#28573d" opacity="0.67" />
<polygon points="80.0,304.0 -10.932667397366075,224.5 170.93266739736603,224.49999999999997" fill="#28573d" opacity="0.59" />
<polygon points="66.00000000000001,368.0 -35.75798494467156,275.0 167.7579849446715,275.0" fill="#28573d" opacity="0.51" />
<rect x="1038" y="47" width="34" height="763" rx="8" fill="#3b291a" />
<polygon points="1068.0,42.0 998.7179676972448,-10.49999999999999 1137.2820323027552,-10.500000000000014" fill="#28573d" opacity="0.75" />
<polygon points="1043.0,106.0 962.8926501499394,40.000000000000014 1123.1073498500605,39.99999999999998" fill="#28573d" opacity="0.67" />
<polygon points="1042.0,170.0 951.0673326026339,90.50000000000001 1132.932667397366,90.49999999999997" fill="#28573d" opacity="0.59" />
<rect x="1402" y="287" width="31" height="523" rx="8" fill="#3b291a" />
<polygon points="1427.5,258.0 1358.2179676972448,205.5 1496.7820323027552,205.5" fill="#28573d" opacity="0.75" />
<polygon points="1430.5,322.0 1350.3926501499395,256.0 1510.6073498500605,255.99999999999997" fill="#28573d" opacity="0.67" />
<polygon points="1410.5,386.0 1319.567332602634,306.5 1501.432667397366,306.5" fill="#28573d" opacity="0.59" />
<polygon points="1435.5,450.0 1333.7420150553285,357.0 1537.2579849446715,357.0" fill="#28573d" opacity="0.51" />
<rect x="1120" y="147" width="24" height="663" rx="8" fill="#3b291a" />
<polygon points="1136.0,142.0 1066.7179676972448,89.50000000000001 1205.2820323027552,89.49999999999999" fill="#28573d" opacity="0.75" />
<polygon points="1122.0,206.0 1041.8926501499395,140.0 1202.1073498500605,139.99999999999997" fill="#28573d" opacity="0.67" />
<polygon points="1130.0,270.0 1039.067332602634,190.5 1220.932667397366,190.49999999999997" fill="#28573d" opacity="0.59" />
<polygon points="1127.0,334.0 1025.2420150553285,241.00000000000003 1228.7579849446715,240.99999999999997" fill="#28573d" opacity="0.51" />
<rect x="240" y="203" width="34" height="607" rx="8" fill="#3b291a" />
<polygon points="239.0,153.0 169.7179676972449,100.50000000000001 308.28203230275506,100.49999999999999" fill="#28573d" opacity="0.75" />
<polygon points="245.0,217.0 164.8926501499394,151.0 325.10734985006053,150.99999999999997" fill="#28573d" opacity="0.67" />
<polygon points="240.0,281.0 149.06733260263394,201.5 330.932667397366,201.49999999999997" fill="#28573d" opacity="0.59" />
<polygon points="266.0,345.0 164.24201505532844,252.00000000000003 367.75798494467153,251.99999999999997" fill="#28573d" opacity="0.51" />
<rect x="592" y="210" width="24" height="600" rx="8" fill="#3b291a" />
<polygon points="621.0,169.0 551.7179676972448,116.50000000000001 690.282032302755,116.49999999999999" fill="#28573d" opacity="0.75" />
<polygon points="613.0,233.0 532.8926501499394,167.0 693.1073498500606,166.99999999999997" fill="#28573d" opacity="0.67" />
<polygon points="589.0,297.0 498.06733260263394,217.5 679.932667397366,217.49999999999997" fill="#28573d" opacity="0.59" />
<polygon points="612.0,361.0 510.24201505532847,268.0 713.7579849446715,268.0" fill="#28573d" opacity="0.51" />
<rect x="1363" y="91" width="19" height="719" rx="8" fill="#3b291a" />
<polygon points="1369.5,42.0 1300.2179676972448,-10.49999999999999 1438.7820323027552,-10.500000000000014" fill="#28573d" opacity="0.75" />
<polygon points="1359.5,106.0 1279.3926501499395,40.000000000000014 1439.6073498500605,39.99999999999998" fill="#28573d" opacity="0.67" />
<polygon points="1377.5,170.0 1286.567332602634,90.50000000000001 1468.432667397366,90.49999999999997" fill="#28573d" opacity="0.59" />
<polygon points="1382.5,234.0 1280.7420150553285,141.00000000000003 1484.2579849446715,140.99999999999997" fill="#28573d" opacity="0.51" />
<rect x="1125" y="71" width="33" height="739" rx="8" fill="#3b291a" />
<polygon points="1127.5,46.0 1058.2179676972448,-6.499999999999989 1196.7820323027552,-6.500000000000014" fill="#28573d" opacity="0.75" />
<polygon points="1132.5,110.0 1052.3926501499395,44.000000000000014 1212.6073498500605,43.99999999999998" fill="#28573d" opacity="0.67" />
<polygon points="1155.5,174.0 1064.567332602634,94.50000000000001 1246.432667397366,94.49999999999997" fill="#28573d" opacity="0.59" />
<polygon points="1151.5,238.0 1049.7420150553285,145.00000000000003 1253.2579849446715,144.99999999999997" fill="#28573d" opacity="0.51" />
<rect x="1383" y="182" width="21" height="628" rx="8" fill="#3b291a" />
<polygon points="1383.5,138.0 1314.2179676972448,85.50000000000001 1452.7820323027552,85.49999999999999" fill="#28573d" opacity="0.75" />
<polygon points="1376.5,202.0 1296.3926501499395,136.0 1456.6073498500605,135.99999999999997" fill="#28573d" opacity="0.67" />
<polygon points="1391.5,266.0 1300.567332602634,186.5 1482.432667397366,186.49999999999997" fill="#28573d" opacity="0.59" />
<rect x="246" y="55" width="21" height="755" rx="8" fill="#3b291a" />
<polygon points="245.5,5.0 176.2179676972449,-47.499999999999986 314.78203230275506,-47.500000000000014" fill="#28573d" opacity="0.75" />
<polygon points="269.5,69.0 189.3926501499394,3.0000000000000107 349.60734985006053,2.9999999999999787" fill="#28573d" opacity="0.67" />
<polygon points="257.5,133.0 166.56733260263394,53.500000000000014 348.432667397366,53.49999999999997" fill="#28573d" opacity="0.59" />
<polygon points="259.5,197.0 157.74201505532844,104.00000000000001 361.25798494467153,103.99999999999997" fill="#28573d" opacity="0.51" />
<rect x="142" y="263" width="29" height="547" rx="8" fill="#3b291a" />
<polygon points="158.5,237.0 89.21796769724489,184.5 227.78203230275506,184.5" fill="#28573d" opacity="0.75" />
<polygon points="150.5,301.0 70.39265014993941,235.0 230.60734985006053,234.99999999999997" fill="#28573d" opacity="0.67" />
<polygon points="141.5,365.0 50.567332602633925,285.5 232.43266739736603,285.5" fill="#28573d" opacity="0.59" />
<rect x="583" y="157" width="33" height="653" rx="8" fill="#3b291a" />
<polygon points="609.5,104.0 540.2179676972448,51.500000000000014 678.782032302755,51.499999999999986" fill="#28573d" opacity="0.75" />
<polygon points="599.5,168.0 519.3926501499394,102.00000000000001 679.6073498500606,101.99999999999997" fill="#28573d" opacity="0.67" />
<polygon points="599.5,232.0 508.56733260263394,152.5 690.432667397366,152.49999999999997" fill="#28573d" opacity="0.59" />
</svg>