<svg xmlns="http://www.w3.org/2000/svg" width="1600" height="900" viewBox="0 0 1600 900">
<rect width="100%" height="100%" fill="rgba(0,0,0,0)" />
<rect width="100%" height="100%" fill="rgba(255,255,255,0.09)" />
<rect x="946" y="128" width="32" height="682" rx="8" fill="#3a2819" />
<polygon points="980.0,121.0 910.7179676972448,68.50000000000001 1049.2820323027552,68.49999999999999" fill="#27613d" opacity="0.75" />
<polygon points="969.0,185.0 888.8926501499394,119.00000000000001 1049.1073498500605,118.99999999999997" fill="#27613d" opacity="0.67" />
<polygon points="970.0,249.0 879.0673326026339,169.5 1060.932667397366,169.49999999999997" fill="#27613d" opacity="0.59" />
<rect x="110" y="193" width="20" height="617" rx="8" fill="#3a2819" />
<polygon points="127.0,175.0 57.71796769724489,122.50000000000001 196.28203230275506,122.49999999999999" fill="#27613d" opacity="0.75" />
<polygon points="134.0,239.0 53.89265014993941,173.0 214.10734985006053,172.99999999999997" fill="#27613d" opacity="0.67" />
<polygon points="120.0,303.0 29.067332602633925,223.5 210.93266739736603,223.49999999999997" fill="#27613d" opacity="0.59" />
<polygon points="136.0,367.0 34.24201505532844,274.0 237.7579849446715,274.0" fill="#27613d" opacity="0.51" />
<rect x="46" y="91" width="30" height="719" rx="8" fill="#3a2819" />
<polygon points="54.00000000000001,36.0 -15.282032302755113,-16.49999999999999 123.28203230275507,-16.500000000000014" fill="#27613d" opacity="0.75" />
<polygon points="48.00000000000001,100.0 -32.10734985006059,34.000000000000014 128.10734985006053,33.99999999999998" fill="#27613d" opacity="0.67" />
<polygon points="60.00000000000001,164.0 -30.932667397366075,84.50000000000001 150.93266739736603,84.49999999999997" fill="#27613d" opacity="0.59" />
<polygon points="51.00000000000001,228.0 -50.75798494467156,135.00000000000003 152.7579849446715,134.99999999999997" fill="#27613d" opacity="0.51" />
<rect x="385" y="75" width="28" height="735" rx="8" fill="#3a2819" />
<polygon points="382.0,20.0 312.7179676972449,-32.499999999999986 451.28203230275506,-32.500000000000014" fill="#27613d" opacity="0.75" />
<polygon points="406.0,84.0 325.8926501499394,18.00000000000001 486.10734985006053,17.99999999999998" fill="#27613d" opacity="0.67" />
<polygon points="402.0,148.0 311.06733260263394,68.50000000000001 492.932667397366,68.49999999999997" fill="#27613d" opacity="0.59" />
<polygon points="384.0,212.0 282.24201505532847,119.00000000000001 485.75798494467153,118.99999999999997" fill="#27613d" opacity="0.51" />
<rect x="1411" y="273" width="19" height="537" rx="8" fill="#3a2819" />
<polygon points="1420.5,253.0 1351.2179676972448,200.5 1489.7820323027552,200.5" fill="#27613d" opacity="0.75" />
<polygon points="1411.5,317.0 1331.3926501499395,251.0 1491.6073498500605,250.99999999999997" fill="#27613d" opacity="0.67" />
<polygon points="1405.5,381.0 1314.567332602634,301.5 1496.432667397366,301.5" fill="#27613d" opacity="0.59" />
<polygon points="1403.5,445.0 1301.7420150553285,352.0 1505.2579849446715,352.0" fill="#27613d" opacity="0.51" />
<rect x="1561" y="57" width="24" height="753" rx="8" fill="#3a2819" />
<polygon points="1565.0,15.0 1495.7179676972448,-37.499999999999986 1634.2820323027552,-37.500000000000014" fill="#27613d" opacity="0.75" />
<polygon points="1579.0,79.0 1498.8926501499395,13.00000000000001 1659.1073498500605,12.999999999999979" fill="#27613d" opacity="0.67" />
<polygon points="1577.0,143.0 1486.067332602634,63.500000000000014 1667.932667397366,63.49999999999997" fill="#27613d" opacity="0.59" />
<polygon points="1580.0,207.0 1478.2420150553285,114.00000000000001 1681.7579849446715,113.99999999999997" fill="#27613d" opacity="0.51" />
<rect x="1528" y="143" width="33" height="667" rx="8" fill="#3a2819" />
<polygon points="1528.5,128.0 1459.2179676972448,75.50000000000001 1597.7820323027552,75.49999999999999" fill="#27613d" opacity="0.75" />
<polygon points="1530.5,192.0 1450.3926501499395,126.00000000000001 1610.6073498500605,125.99999999999997" fill="#27613d" opacity="0.67" />
<polygon points="1526.5,256.0 1435.567332602634,176.5 1617.432667397366,176.49999999999997" fill="#27613d" opacity="0.59" />
<polygon points="1532.5,320.0 1430.7420150553285,227.00000000000003 1634.2579849446715,226.99999999999997" fill="#27613d" opacity="0.51" />
<rect x="238" y="283" width="22" height="527" rx="8" fill="#3a2819" />
<polygon points="244.0,239.0 174.7179676972449,186.5 313.28203230275506,186.5" fill="#27613d" opacity="0.75" />
<polygon points="247.0,303.0 166.8926501499394,237.0 327.10734985006053,236.99999999999997" fill="#27613d" opacity="0.67" />
<polygon points="259.0,367.0 168.06733260263394,287.5 349.932667397366,287.5" fill="#27613d" opacity="0.59" />
<rect x="214" y="68" width="34" height="742" rx="8" fill="#3a2819" />
<polygon points="239.0,25.0 169.7179676972449,-27.49999999999999 308.28203230275506,-27.500000000000014" fill="#27613d" opacity="0.75" />
<polygon points="244.0,89.0 163.8926501499394,23.00000000000001 324.10734985006053,22.99999999999998" fill="#27613d" opacity="0.67" />
<polygon points="249.0,153.0 158.06733260263394,73.50000000000001 339.932667397366,73.49999999999997" fill="#27613d" opacity="0.59" />
<rect x="574" y="99" width="27" height="711" rx="8" fill="#3a2819" />
<polygon points="601.5,79.0 532.2179676972448,26.50000000000001 670.782032302755,26.499999999999986" fill="#27613d" opacity="0.75" />
<polygon points="582.5,143.0 502.3926501499394,77.00000000000001 662.6073498500606,76.99999999999997" fill="#27613d" opacity="0.67" />
<polygon points="600.5,207.0 509.56733260263394,127.50000000000001 691.432667397366,127.49999999999997" fill="#27613d" opacity="0.59" />
<rect x="946" y="128" width="30" height="682" rx="8" fill="#3a2819" />
<polygon points="966.0,88.0 896.7179676972448,35.500000000000014 1035.2820323027552,35.499999999999986" fill="#27613d" opacity="0.75" />
<polygon points="956.0,152.0 875.8926501499394,86.00000000000001 1036.1073498500605,85.99999999999997" fill="#27613d" opacity="0.67" />
<polygon points="978.0,216.0 887.0673326026339,136.5 1068.932667397366,136.49999999999997" fill="#27613d" opacity="0.59" />
<polygon points="964.0,280.0 862.2420150553285,187.00000000000003 1065.7579849446715,186.99999999999997" fill="#27613d" opacity="0.51" />
<rect x="1340" y="240" width="22" height="570" rx="8" fill="#3a2819" />
<polygon points="1339.0,234.0 1269.7179676972448,181.5 1408.2820323027552,181.5" fill="#27613d" opacity="0.75" />
<polygon points="1350.0,298.0 1269.8926501499395,232.0 1430.1073498500605,231.99999999999997" fill="#27613d" opacity="0.67" />
<polygon points="1338.0,362.0 1247.067332602634,282.5 1428.932667397366,282.5" fill="#27613d" opacity="0.59" />
<rect x="1433" y="83" width="33" height="727" rx="8" fill="#3a2819" />
<polygon points="1464.5,57.0 1395.2179676972448,4.500000000000011 1533.7820323027552,4.499999999999986" fill="#27613d" opacity="0.75" />
<polygon points="1444.5,121.0 1364.3926501499395,55.000000000000014 1524.6073498500605,54.99999999999998" fill="#27613d" opacity="0.67" />
<polygon points="1439.5,185.0 1348.567332602634,105.50000000000001 1530.432667397366,105.49999999999997" fill="#27613d" opacity="0.59" />
<polygon points="1461.5,249.0 1359.7420150553285,156.00000000000003 1563.2579849446715,155.99999999999997" fill="#27613d" opacity="0.51" />
<rect x="1363" y="238" width="18" height="572" rx="8" fill="#3a2819" />
<polygon points="1360.0,225.0 1290.7179676972448,172.5 1429.2820323027552,172.5" fill="#27613d" opacity="0.75" />
<polygon points="1366.0,289.0 1285.8926501499395,223.0 1446.1073498500605,222.99999999999997" fill="#27613d" opacity="0.67" />
<polygon points="1373.0,353.0 1282.067332602634,273.5 1463.932667397366,273.5" fill="#27613d" opacity="0.59" />
<rect x="1029" y="163" width="21" height="647" rx="8" fill="#3a2819" />
<polygon points="1035.5,117.0 966.2179676972448,64.50000000000001 1104.7820323027552,64.49999999999999" fill="#27613d" opacity="0.75" />
<polygon points="1031.5,181.0 951.3926501499394,115.00000000000001 1111.6073498500605,114.99999999999997" fill="#27613d" opacity="0.67" />
<polygon points="1046.5,245.0 955.5673326026339,165.5 1137.432667397366,165.49999999999997" fill="#27613d" opacity="0.59" />
<rect x="176" y="158" width="34" height="652" rx="8" fill="#3a2819" />
<polygon points="205.0,138.0 135.7179676972449,85.50000000000001 274.28203230275506,85.49999999999999" fill="#27613d" opacity="0.75" />
<polygon points="194.0,202.0 113.89265014993941,136.0 274.10734985006053,135.99999999999997" fill="#27613d" opacity="0.67" />
<polygon points="178.0,266.0 87.06733260263393,186.5 268.932667397366,186.49999999999997" fill="#27613d" opacity="0.59" />
<polygon points="190.0,330.0 88.24201505532844,237.00000000000003 291.75798494467153,236.99999999999997" fill="#27613d" opacity="0.51" />
<rect x="1189" y="133" width="27" height="677" rx="8" fill="#3a2819" />
<polygon points="1215.5,97.0 1146.2179676972448,44.500000000000014 1284.7820323027552,44.499999999999986" fill="#27613d" opacity="0.75" />
<polygon points="1194.5,161.0 1114.3926501499395,95.00000000000001 1274.6073498500605,94.99999999999997" fill="#27613d" opacity="0.67" />
<polygon points="1188.5,225.0 1097.567332602634,145.5 1279.432667397366,145.49999999999997" fill="#27613d" opacity="0.59" />
<rect x="1555" y="283" width="33" height="527" rx="8" fill="#3a2819" />
<polygon points="1577.5,237.0 1508.2179676972448,184.5 1646.7820323027552,184.5" fill="#27613d" opacity="0.75" />
<polygon points="1561.5,301.0 1481.3926501499395,235.0 1641.6073498500605,234.99999999999997" fill="#27613d" opacity="0.67" />
<polygon points="1569.5,365.0 1478.567332602634,285.5 1660.432667397366,285.5" fill="#27613d" opacity="0.59" />
<polygon points="1553.5,429.0 1451.7420150553285,336.0 1655.2579849446715,336.0" fill="#27613d" opacity="0.51" />
<rect x="705" y="64" width="24" height="746" rx="8" fill="#3a2819" />
<polygon points="716.0,25.0 646.7179676972448,-27.49999999999999 785.282032302755,-27.500000000000014" fill="#27613d" opacity="0.75" />
<polygon points="734.0,89.0 653.8926501499394,23.00000000000001 814.1073498500606,22.99999999999998" fill="#27613d" opacity="0.67" />
<polygon points="711.0,153.0 620.0673326026339,73.50000000000001 801.932667397366,73.49999999999997" fill="#27613d" opacity="0.59" />
<polygon points="733.0,217.0 631.2420150553285,124.00000000000001 834.7579849446715,123.99999999999997" fill="#27613d" opacity="0.51" />
<rect x="1318" y="244" width="29" height="566" rx="8" fill="#3a2819" />
<polygon points="1316.5,206.0 1247.2179676972448,153.5 1385.7820323027552,153.5" fill="#27613d" opacity="0.75" />
<polygon points="1348.5,270.0 1268.3926501499395,204.0 1428.6073498500605,203.99999999999997" fill="#27613d" opacity="0.67" />
<polygon points="1315.5,334.0 1224.567332602634,254.5 1406.432667397366,254.49999999999997" fill="#27613d" opacity="0.59" />
<rect x="610" y="153" width="19" height="657" rx="8" fill="#3a2819" />
<polygon points="620.5,101.0 551.2179676972448,48.500000000000014 689.782032302755,48.499999999999986" fill="#27613d" opacity="0.75" />
<polygon points="630.5,165.0 550.3926501499394,99.00000000000001 710.6073498500606,98.99999999999997" fill="#27613d" opacity="0.67" />
<polygon points="608.5,229.0 517.5673326026339,149.5 699.432667397366,149.49999999999997" fill="#27613d" opacity="0.59" />
<rect x="1406" y="286" width="27" height="524" rx="8" fill="#3a2819" />
<polygon points="1406.5,240.0 1337.2179676972448,187.5 1475.7820323027552,187.5" fill="#27613d" opacity="0.75" />
<polygon points="1414.5,304.0 1334.3926501499395,238.0 1494.6073498500605,237.99999999999997" fill="#27613d" opacity="0.67" />
<polygon points="1429.5,368.0 1338.567332602634,288.5 1520.432667397366,288.5" fill="#27613d" opacity="0.59" />
<polygon points="1404.5,432.0 1302.7420150553285,339.0 1506.2579849446715,339.0" fill="#27613d" opacity="0.51" />
<rect x="172" y="269" width="23" height="541" rx="8" fill="#3a2819" />
<polygon points="182.5,229.0 113.21796769724489,176.5 251.78203230275506,176.5" fill="#27613d" opacity="0.75" />
<polygon points="199.5,293.0 119.39265014993941,227.0 279.60734985006053,226.99999999999997" fill="#27613d" opacity="0.67" />
<polygon points="165.5,357.0 74.56733260263393,277.5 256.432667397366,277.5" fill="#27613d" opacity="0.59" />
<polygon points="197.5,421.0 95.74201505532844,328.0 299.25798494467153,328.0" fill="#27613d" opacity="0.51" />
<rect x="1198" y="136" width="26" height="674" rx="8" fill="#3a2819" />
<polygon points="1213.0,84.0 1143.7179676972448,31.50000000000001 1282.2820323027552,31.499999999999986" fill="#27613d" opacity="0.75" />
<polygon points="1213.0,148.0 1132.8926501499395,82.00000000000001 1293.1073498500605,81.99999999999997" fill="#27613d" opacity="0.67" />
<polygon points="1226.0,212.0 1135.067332602634,132.5 1316.932667397366,132.49999999999997" fill="#27613d" opacity="0.59" />
</svg>