<svg xmlns="http://www.w3.org/2000/svg" width="1600" height="900" viewBox="0 0 1600 900">
<rect width="100%" height="100%" fill="rgba(0,0,0,0)" />
<rect width="100%" height="100%" fill="rgba(255,255,255,0.06)" />
<rect x="1357" y="146" width="26" height="664" rx="8" fill="#42301e" />
<polygon points="1367.0,92.0 1297.7179676972448,39.500000000000014 1436.2820323027552,39.499999999999986" fill="#2e6e45" opacity="0.75" />
<polygon points="1363.0,156.0 1282.8926501499395,90.00000000000001 1443.1073498500605,89.99999999999997" fill="#2e6e45" opacity="0.67" />
<polygon points="1366.0,220.0 1275.067332602634,140.5 1456.932667397366,140.49999999999997" fill="#2e6e45" opacity="0.59" />
<polygon points="1360.0,284.0 1258.2420150553285,191.00000000000003 1461.7579849446715,190.99999999999997" fill="#2e6e45" opacity="0.51" />
<rect x="1546" y="124" width="31" height="686" rx="8" fill="#42301e" />
<polygon points="1576.5,116.0 1507.2179676972448,63.500000000000014 1645.7820323027552,63.499999999999986" fill="#2e6e45" opacity="0.75" />
<polygon points="1563.5,180.0 1483.3926501499395,114.00000000000001 1643.6073498500605,113.99999999999997" fill="#2e6e45" opacity="0.67" />
<polygon points="1573.5,244.0 1482.567332602634,164.5 1664.432667397366,164.49999999999997" fill="#2e6e45" opacity="0.59" />
<rect x="642" y="179" width="21" height="631" rx="8" fill="#42301e" />
<polygon points="661.5,137.0 592.2179676972448,84.50000000000001 730.782032302755,84.49999999999999" fill="#2e6e45" opacity="0.75" />
<polygon points="637.5,201.0 557.3926501499394,135.0 717.6073498500606,134.99999999999997" fill="#2e6e45" opacity="0.67" />
<polygon points="666.5,265.0 575.5673326026339,185.5 757.432667397366,185.49999999999997" fill="#2e6e45" opacity="0.59" />
<rect x="1046" y="239" width="19" height="571" rx="8" fill="#42301e" />
<polygon points="1049.5,213.0 980.2179676972448,160.5 1118.7820323027552,160.5" fill="#2e6e45" opacity="0.75" />
<polygon points="1045.5,277.0 965.3926501499394,211.0 1125.6073498500605,210.99999999999997" fill="#2e6e45" opacity="0.67" />
<polygon points="1067.5,341.0 976.5673326026339,261.5 1158.432667397366,261.5" fill="#2e6e45" opacity="0.59" />
<polygon points="1046.5,405.0 944.7420150553285,312.0 1148.2579849446715,312.0" fill="#2e6e45" opacity="0.51" />
<rect x="1058" y="227" width="31" height="583" rx="8" fill="#42301e" />
<polygon points="1057.5,214.0 988.2179676972448,161.5 1126.7820323027552,161.5" fill="#2e6e45" opacity="0.75" />
<polygon points="1075.5,278.0 995.3926501499394,212.0 1155.6073498500605,211.99999999999997" fill="#2e6e45" opacity="0.67" />
<polygon points="1074.5,342.0 983.5673326026339,262.5 1165.432667397366,262.5" fill="#2e6e45" opacity="0.59" />
<rect x="109" y="76" width="18" height="734" rx="8" fill="#42301e" />
<polygon points="100.0,53.0 30.717967697244887,0.5000000000000107 169.28203230275506,0.4999999999999858" fill="#2e6e45" opacity="0.75" />
<polygon points="119.0,117.0 38.89265014993941,51.000000000000014 199.10734985006053,50.99999999999998" fill="#2e6e45" opacity="0.67" />
<polygon points="128.0,181.0 37.067332602633925,101.50000000000001 218.93266739736603,101.49999999999997" fill="#2e6e45" opacity="0.59" />
<polygon points="116.00000000000001,245.0 14.242015055328437,152.00000000000003 217.7579849446715,151.99999999999997" fill="#2e6e45" opacity="0.51" />
<rect x="631" y="179" width="29" height="631" rx="8" fill="#42301e" />
<polygon points="663.5,155.0 594.2179676972448,102.50000000000001 732.782032302755,102.49999999999999" fill="#2e6e45" opacity="0.75" />
<polygon points="660.5,219.0 580.3926501499394,153.0 740.6073498500606,152.99999999999997" fill="#2e6e45" opacity="0.67" />
<polygon points="642.5,283.0 551.5673326026339,203.5 733.432667397366,203.49999999999997" fill="#2e6e45" opacity="0.59" />
<polygon points="631.5,347.0 529.7420150553285,254.00000000000003 733.2579849446715,253.99999999999997" fill="#2e6e45" opacity="0.51" />
<rect x="1551" y="48" width="21" height="762" rx="8" fill="#42301e" />
<polygon points="1543.5,38.0 1474.2179676972448,-14.49999999999999 1612.7820323027552,-14.500000000000014" fill="#2e6e45" opacity="0.75" />
<polygon points="1578.5,102.0 1498.3926501499395,36.000000000000014 1658.6073498500605,35.99999999999998" fill="#2e6e45" opacity="0.67" />
<polygon points="1569.5,166.0 1478.567332602634,86.50000000000001 1660.432667397366,86.49999999999997" fill="#2e6e45" opacity="0.59" />
<polygon points="1567.5,230.0 1465.7420150553285,137.00000000000003 1669.2579849446715,136.99999999999997" fill="#2e6e45" opacity="0.51" />
<rect x="1050" y="86" width="26" height="724" rx="8" fill="#42301e" />
<polygon points="1075.0,75.0 1005.7179676972448,22.50000000000001 1144.2820323027552,22.499999999999986" fill="#2e6e45" opacity="0.75" />
<polygon points="1049.0,139.0 968.8926501499394,73.00000000000001 1129.1073498500605,72.99999999999997" fill="#2e6e45" opacity="0.67" />
<polygon points="1062.0,203.0 971.0673326026339,123.50000000000001 1152.932667397366,123.49999999999997" fill="#2e6e45" opacity="0.59" />
<rect x="798" y="272" width="27" height="538" rx="8" fill="#42301e" />
<polygon points="800.5,227.0 731.2179676972448,174.5 869.782032302755,174.5" fill="#2e6e45" opacity="0.75" />
<polygon points="813.5,291.0 733.3926501499394,225.0 893.6073498500606,224.99999999999997" fill="#2e6e45" opacity="0.67" />
<polygon points="810.5,355.0 719.5673326026339,275.5 901.432667397366,275.5" fill="#2e6e45" opacity="0.59" />
<rect x="722" y="225" width="31" height="585" rx="8" fill="#42301e" />
<polygon points="728.5,171.0 659.2179676972448,118.50000000000001 797.782032302755,118.49999999999999" fill="#2e6e45" opacity="0.75" />
<polygon points="747.5,235.0 667.3926501499394,169.0 827.6073498500606,168.99999999999997" fill="#2e6e45" opacity="0.67" />
<polygon points="747.5,299.0 656.5673326026339,219.5 838.432667397366,219.49999999999997" fill="#2e6e45" opacity="0.59" />
<rect x="708" y="270" width="24" height="540" rx="8" fill="#42301e" />
<polygon points="738.0,221.0 668.7179676972448,168.5 807.282032302755,168.5" fill="#2e6e45" opacity="0.75" />
<polygon points="728.0,285.0 647.8926501499394,219.0 808.1073498500606,218.99999999999997" fill="#2e6e45" opacity="0.67" />
<polygon points="720.0,349.0 629.0673326026339,269.5 810.932667397366,269.5" fill="#2e6e45" opacity="0.59" />
<polygon points="722.0,413.0 620.2420150553285,320.0 823.7579849446715,320.0" fill="#2e6e45" opacity="0.51" />
<rect x="525" y="159" width="31" height="651" rx="8" fill="#42301e" />
<polygon points="530.5,126.0 461.2179676972449,73.50000000000001 599.782032302755,73.49999999999999" fill="#2e6e45" opacity="0.75" />
<polygon points="530.5,190.0 450.3926501499394,124.00000000000001 610.6073498500606,123.99999999999997" fill="#2e6e45" opacity="0.67" />
<polygon points="548.5,254.0 457.56733260263394,174.5 639.432667397366,174.49999999999997" fill="#2e6e45" opacity="0.59" />
<polygon points="528.5,318.0 426.74201505532847,225.00000000000003 630.2579849446715,224.99999999999997" fill="#2e6e45" opacity="0.51" />
<rect x="1393" y="57" width="18" height="753" rx="8" fill="#42301e" />
<polygon points="1397.0,19.0 1327.7179676972448,-33.499999999999986 1466.2820323027552,-33.500000000000014" fill="#2e6e45" opacity="0.75" />
<polygon points="1394.0,83.0 1313.8926501499395,17.00000000000001 1474.1073498500605,16.99999999999998" fill="#2e6e45" opacity="0.67" />
<polygon points="1394.0,147.0 1303.067332602634,67.50000000000001 1484.932667397366,67.49999999999997" fill="#2e6e45" opacity="0.59" />
<rect x="312" y="109" width="23" height="701" rx="8" fill="#42301e" />
<polygon points="340.5,90.0 271.2179676972449,37.500000000000014 409.78203230275506,37.499999999999986" fill="#2e6e45" opacity="0.75" />
<polygon points="328.5,154.0 248.3926501499394,88.00000000000001 408.60734985006053,87.99999999999997" fill="#2e6e45" opacity="0.67" />
<polygon points="322.5,218.0 231.56733260263394,138.5 413.432667397366,138.49999999999997" fill="#2e6e45" opacity="0.59" />
<polygon points="311.5,282.0 209.74201505532844,189.00000000000003 413.25798494467153,188.99999999999997" fill="#2e6e45" opacity="0.51" />
<rect x="738" y="136" width="26" height="674" rx="8" fill="#42301e" />
<polygon points="752.0,111.0 682.7179676972448,58.500000000000014 821.282032302755,58.499999999999986" fill="#2e6e45" opacity="0.75" />
<polygon points="752.0,175.0 671.8926501499394,109.00000000000001 832.1073498500606,108.99999999999997" fill="#2e6e45" opacity="0.67" />
<polygon points="760.0,239.0 669.0673326026339,159.5 850.932667397366,159.49999999999997" fill="#2e6e45" opacity="0.59" />
<polygon points="750.0,303.0 648.2420150553285,210.00000000000003 851.7579849446715,209.99999999999997" fill="#2e6e45" opacity="0.51" />
<rect x="392" y="267" width="24" height="543" rx="8" fill="#42301e" />
<polygon points="407.0,224.0 337.7179676972449,171.5 476.28203230275506,171.5" fill="#2e6e45" opacity="0.75" />
<polygon points="388.0,288.0 307.8926501499394,222.0 468.10734985006053,221.99999999999997" fill="#2e6e45" opacity="0.67" />
<polygon points="392.0,352.0 301.06733260263394,272.5 482.932667397366,272.5" fill="#2e6e45" opacity="0.59" />
<rect x="531" y="279" width="34" height="531" rx="8" fill="#42301e" />
<polygon points="543.0,225.0 473.7179676972449,172.5 612.282032302755,172.5" fill="#2e6e45" opacity="0.75" />
<polygon points="554.0,289.0 473.8926501499394,223.0 634.1073498500606,222.99999999999997" fill="#2e6e45" opacity="0.67" />
<polygon points="539.0,353.0 448.06733260263394,273.5 629.932667397366,273.5" fill="#2e6e45" opacity="0.59" />
<rect x="366" y="243" width="18" height="567" rx="8" fill="#42301e" />
<polygon points="385.0,197.0 315.7179676972449,144.5 454.28203230275506,144.5" fill="#2e6e45" opacity="0.75" />
<polygon points="378.0,261.0 297.8926501499394,195.0 458.10734985006053,194.99999999999997" fill="#2e6e45" opacity="0.67" />
<polygon points="370.0,325.0 279.06733260263394,245.5 460.932667397366,245.49999999999997" fill="#2e6e45" opacity="0.59" />
<rect x="527" y="81" width="33" height="729" rx="8" fill="#42301e" />
<polygon points="542.5,68.0 473.2179676972449,15.50000000000001 611.782032302755,15.499999999999986" fill="#2e6e45" opacity="0.75" />
<polygon points="543.5,132.0 463.3926501499394,66.00000000000001 623.6073498500606,65.99999999999997" fill="#2e6e45" opacity="0.67" />
<polygon points="527.5,196.0 436.56733260263394,116.50000000000001 618.432667397366,116.49999999999997" fill="#2e6e45" opacity="0.59" />
<polygon points="534.5,260.0 432.74201505532847,167.00000000000003 636.2579849446715,166.99999999999997" fill="#2e6e45" opacity="0.51" />
<rect x="1102" y="204" width="33" height="606" rx="8" fill="#42301e" />
<polygon points="1108.5,195.0 1039.2179676972448,142.5 1177.7820323027552,142.5" fill="#2e6e45" opacity="0.75" />
<polygon points="1135.5,259.0 1055.3926501499395,193.0 1215.6073498500605,192.99999999999997" fill="#2e6e45" opacity="0.67" />
<polygon points="1114.5,323.0 1023.5673326026339,243.5 1205.432667397366,243.49999999999997" fill="#2e6e45" opacity="0.59" />
<polygon points="1116.5,387.0 1014.7420150553285,294.0 1218.2579849446715,294.0" fill="#2e6e45" opacity="0.51" />
<rect x="891" y="60" width="31" height="750" rx="8" fill="#42301e" />
<polygon points="909.5,42.0 840.2179676972448,-10.49999999999999 978.782032302755,-10.500000000000014" fill="#2e6e45" opacity="0.75" />
<polygon points="907.5,106.0 827.3926501499394,40.000000000000014 987.6073498500606,39.99999999999998" fill="#2e6e45" opacity="0.67" />
<polygon points="916.5,170.0 825.5673326026339,90.50000000000001 1007.432667397366,90.49999999999997" fill="#2e6e45" opacity="0.59" />
<polygon points="918.5,234.0 816.7420150553285,141.00000000000003 1020.2579849446715,140.99999999999997" fill="#2e6e45" opacity="0.51" />
</svg>