<svg xmlns="http://www.w3.org/2000/svg" width="320" height="220" viewBox="0 0 320 220">
<rect width="100%" height="100%" fill="rgba(0,0,0,0)"/>
<ellipse cx="160" cy="140" rx="90" ry="70" fill="#6b5336" />
<ellipse cx="120" cy="90" rx="55" ry="50" fill="#7a6243" />
<ellipse cx="200" cy="90" rx="55" ry="50" fill="#7a6243" />
<ellipse cx="120" cy="90" rx="26" ry="32" fill="#f0e4cf" />
<ellipse cx="200" cy="90" rx="26" ry="32" fill="#f0e4cf" />
<circle cx="120" cy="90" r="10" fill="#111" />
<circle cx="200" cy="90" r="10" fill="#111" />
<polygon points="160,120 145,95 175,95" fill="#f9c851" />
<path d="M90 180 Q160 150 230 180" stroke="#543d2b" stroke-width="12" fill="none" stroke-linecap="round"/>
<rect x="145" y="170" width="14" height="36" rx="5" fill="#3c2c1d"/>
<rect x="165" y="170" width="14" height="36" rx="5" fill="#3c2c1d"/>
<path d="M70 150 Q100 90 140 150" fill="#5b452d" opacity="0.8" />
<path d="M180 150 Q220 90 250 150" fill="#5b452d" opacity="0.8" />
</svg>